<svg width="171" height="34" viewBox="0 0 171 34" fill="none" xmlns="http://www.w3.org/2000/svg">
<path d="M22.3089 0.751364L19.9363 6.6887L22.2419 11.4667L24.7554 5.30191H30.2387V26.329C30.2375 27.1314 29.9171 27.9006 29.3478 28.4678C28.7785 29.035 28.0067 29.3539 27.2019 29.3545C26.5601 29.3545 25.4531 28.9978 25.0148 28.1282L21.6604 20.7707L21.6381 20.8063L16.1011 8.71538L16.119 8.69308L13.7955 3.61636C12.485 0.98101 9.80377 0 7.60329 0C5.58677 0 3.65284 0.798661 2.22695 2.22029C0.801058 3.64191 0 5.57005 0 7.58053L0.0760329 33.1492H11.5883L14.5648 26.7281L12.2637 21.9479L9.13289 28.5987H4.56421V7.58053C4.56421 6.77693 4.8844 6.00624 5.45433 5.43801C6.02427 4.86978 6.79727 4.55055 7.60329 4.55055C8.00805 4.55055 9.37441 4.64196 9.87533 5.96409L12.4515 11.6094L13.3035 13.4933L18.8181 25.5821C19.7797 27.6489 20.8487 29.9342 21.3183 30.9174C22.2732 32.9084 24.7576 33.905 27.2019 33.905C28.2004 33.905 29.1891 33.709 30.1115 33.328C31.034 32.947 31.8722 32.3887 32.5782 31.6847C33.2842 30.9808 33.8443 30.1452 34.2264 29.2254C34.6085 28.3057 34.8052 27.32 34.8052 26.3245V0.751364H22.3089Z" fill="#FC5E02"/>
<path d="M44.4093 28.0115V5.47404C44.4024 5.42378 44.4073 5.37264 44.4237 5.3246C44.4402 5.27655 44.4676 5.2329 44.5039 5.19704C44.5401 5.16118 44.5843 5.13409 44.6329 5.11788C44.6816 5.10166 44.7333 5.09676 44.7842 5.10356H49.3246C49.4162 5.09978 49.5069 5.12326 49.5848 5.17096C49.6628 5.21867 49.7245 5.28839 49.762 5.37112L59.5509 21.3634H59.7176V5.47404C59.7107 5.42378 59.7156 5.37264 59.7321 5.3246C59.7485 5.27655 59.7759 5.2329 59.8122 5.19704C59.8484 5.16118 59.8926 5.13409 59.9412 5.11788C59.9899 5.10166 60.0416 5.09676 60.0925 5.10356H63.8623C63.9131 5.09676 63.9649 5.10166 64.0135 5.11788C64.0621 5.13409 64.1063 5.16118 64.1426 5.19704C64.1789 5.2329 64.2063 5.27655 64.2227 5.3246C64.2391 5.37264 64.244 5.42378 64.2372 5.47404V28.1144C64.244 28.1646 64.2391 28.2158 64.2227 28.2638C64.2063 28.3119 64.1789 28.3555 64.1426 28.3914C64.1063 28.4272 64.0621 28.4543 64.0135 28.4705C63.9649 28.4867 63.9131 28.4916 63.8623 28.4848H59.3218C59.2359 28.4618 59.1586 28.4145 59.0994 28.3487C59.0402 28.2829 59.0017 28.2015 58.9886 28.1144L49.0538 12.0603H48.9289V28.0115C48.9357 28.0617 48.9308 28.1129 48.9144 28.1609C48.898 28.2089 48.8705 28.2526 48.8343 28.2885C48.798 28.3243 48.7538 28.3514 48.7052 28.3676C48.6566 28.3838 48.6048 28.3887 48.554 28.3819H44.7842C44.7333 28.3887 44.6816 28.3838 44.6329 28.3676C44.5843 28.3514 44.5401 28.3243 44.5039 28.2885C44.4676 28.2526 44.4402 28.2089 44.4237 28.1609C44.4073 28.1129 44.4024 28.0617 44.4093 28.0115Z" fill="#ffffff"/>
<path d="M67.6108 19.9016C67.5256 18.7169 67.7007 17.5281 68.1243 16.4166C68.5478 15.3052 69.2096 14.2974 70.0643 13.4625C70.9191 12.6276 71.9465 11.9854 73.0761 11.5798C74.2056 11.1743 75.4106 11.015 76.6084 11.113C81.8153 11.113 84.9394 14.4062 84.9394 19.8399V20.7661C84.9394 20.8643 84.8999 20.9585 84.8296 21.028C84.7593 21.0975 84.6639 21.1365 84.5645 21.1365H72.3595C72.3408 21.6945 72.4406 22.2501 72.6526 22.7676C72.8646 23.285 73.184 23.7528 73.5903 24.1407C73.9966 24.5286 74.4806 24.828 75.0112 25.0196C75.5418 25.2112 76.1072 25.2907 76.6708 25.253C77.426 25.3574 78.1949 25.2121 78.8579 24.8399C79.5208 24.4676 80.0407 23.8893 80.3365 23.1947C80.3519 23.1 80.404 23.0148 80.4817 22.9573C80.5594 22.8997 80.6567 22.8741 80.7531 22.886H84.5229C84.7936 22.886 84.9186 22.886 84.8769 23.1536C84.2729 26.4056 81.3571 28.5667 76.5459 28.5667C75.3643 28.6534 74.1776 28.49 73.065 28.0875C71.9525 27.6849 70.9395 27.0525 70.0939 26.2324C69.2483 25.4124 68.5894 24.4235 68.1612 23.3318C67.733 22.2401 67.5454 21.0707 67.6108 19.9016ZM80.4823 18.3991C80.5176 17.8871 80.4437 17.3734 80.2653 16.8914C80.087 16.4094 79.8081 15.9698 79.4468 15.6011C79.0855 15.2324 78.6498 14.9428 78.168 14.7512C77.6862 14.5595 77.169 14.47 76.65 14.4885C76.103 14.4428 75.5524 14.5101 75.0331 14.6861C74.5139 14.862 74.0373 15.1428 73.6338 15.5106C73.2303 15.8784 72.9086 16.3251 72.6892 16.8224C72.4698 17.3197 72.3576 17.8566 72.3595 18.3991H80.4823Z" fill="#ffffff"/>
<path d="M90.0011 23.2574V14.6747H87.1893C87.1412 14.6816 87.0921 14.6773 87.046 14.6621C86.9998 14.647 86.9579 14.6214 86.9235 14.5874C86.8892 14.5535 86.8633 14.512 86.8479 14.4664C86.8326 14.4208 86.8283 14.3723 86.8353 14.3248V11.7314C86.8353 11.4844 86.9602 11.3609 87.1893 11.3609H90.0011V6.70939C89.9982 6.66174 90.0053 6.61401 90.0218 6.56916C90.0383 6.5243 90.064 6.48326 90.0971 6.44856C90.1303 6.41385 90.1703 6.38622 90.2147 6.36737C90.259 6.34851 90.3068 6.33883 90.3551 6.33891H94.2707C94.3216 6.33211 94.3733 6.33701 94.422 6.35323C94.4706 6.36944 94.5148 6.39653 94.551 6.43239C94.5873 6.46825 94.6147 6.5119 94.6311 6.55995C94.6476 6.60799 94.6525 6.65914 94.6456 6.70939V11.2786H98.5612C98.6121 11.2718 98.6638 11.2767 98.7125 11.2929C98.7611 11.3092 98.8052 11.3362 98.8415 11.3721C98.8778 11.408 98.9052 11.4516 98.9216 11.4997C98.938 11.5477 98.943 11.5988 98.9361 11.6491V14.3248C98.9396 14.3734 98.9321 14.4222 98.9142 14.4676C98.8963 14.5131 98.8684 14.554 98.8325 14.5875C98.7967 14.6209 98.7537 14.6461 98.7068 14.6612C98.6599 14.6763 98.6102 14.6809 98.5612 14.6747H94.6456V24.9657H98.5612C98.6102 24.9595 98.6599 24.9641 98.7068 24.9792C98.7537 24.9943 98.7967 25.0195 98.8325 25.0529C98.8684 25.0864 98.8963 25.1274 98.9142 25.1728C98.9321 25.2182 98.9396 25.267 98.9361 25.3156V27.909C98.943 27.9592 98.938 28.0104 98.9216 28.0584C98.9052 28.1065 98.8778 28.1501 98.8415 28.186C98.8052 28.2218 98.7611 28.2489 98.7125 28.2651C98.6638 28.2814 98.6121 28.2863 98.5612 28.2795H95.1663C94.4756 28.36 93.7754 28.2863 93.1173 28.0636C92.4593 27.841 91.8603 27.4751 91.3645 26.9931C90.8687 26.511 90.4887 25.9251 90.2528 25.2785C90.0168 24.6319 89.9308 23.9412 90.0011 23.2574Z" fill="#ffffff"/>
<path d="M100.893 19.9014C100.825 18.7227 101.012 17.5433 101.44 16.4413C101.869 15.3392 102.529 14.3397 103.378 13.5088C104.226 12.6779 105.244 12.0347 106.363 11.6216C107.482 11.2085 108.677 11.0351 109.869 11.1128C114.41 11.1128 117.472 13.4797 117.992 17.2874C117.999 17.3385 117.993 17.3903 117.977 17.4391C117.961 17.488 117.934 17.5327 117.898 17.57C117.862 17.6073 117.818 17.6364 117.77 17.6552C117.721 17.6739 117.669 17.6819 117.617 17.6785H113.848C113.618 17.6785 113.514 17.555 113.452 17.308C113.398 16.8968 113.262 16.5002 113.053 16.1409C112.844 15.7816 112.565 15.4667 112.232 15.2143C111.899 14.9619 111.519 14.7769 111.113 14.67C110.708 14.563 110.285 14.5362 109.869 14.5912C107.141 14.5912 105.6 16.6494 105.6 19.9425C105.6 23.2357 107.183 25.2321 109.869 25.2321C110.729 25.3512 111.602 25.1339 112.303 24.6264C113.003 24.119 113.475 23.3615 113.618 22.5153C113.618 22.4649 113.629 22.4149 113.649 22.3686C113.669 22.3222 113.698 22.2804 113.736 22.2458C113.773 22.2111 113.816 22.1842 113.864 22.1669C113.912 22.1495 113.963 22.142 114.014 22.1448H117.784C118.013 22.1448 118.18 22.2683 118.159 22.4741C117.576 26.2612 114.556 28.6488 109.828 28.6488C108.639 28.7367 107.445 28.5714 106.326 28.1641C105.207 27.7567 104.19 27.1168 103.343 26.2876C102.496 25.4583 101.839 24.4591 101.416 23.3574C100.993 22.2556 100.815 21.0771 100.893 19.9014Z" fill="#ffffff"/>
<path d="M120.368 19.9022C120.284 18.725 120.458 17.5438 120.876 16.4386C121.295 15.3333 121.949 14.33 122.795 13.4965C123.64 12.663 124.657 12.0189 125.776 11.6078C126.896 11.1966 128.091 11.0281 129.282 11.1136C130.477 11.0219 131.677 11.1858 132.802 11.5941C133.926 12.0025 134.948 12.6457 135.798 13.4799C136.648 14.3141 137.306 15.3196 137.727 16.4279C138.148 17.5362 138.323 18.7213 138.238 19.9022C138.31 21.0765 138.127 22.2523 137.7 23.3506C137.273 24.4488 136.614 25.444 135.765 26.269C134.916 27.094 133.899 27.7297 132.78 28.1332C131.662 28.5368 130.469 28.6988 129.282 28.6084C128.099 28.6926 126.911 28.526 125.798 28.1197C124.684 27.7134 123.672 27.0767 122.828 26.2524C121.984 25.4281 121.328 24.4352 120.904 23.34C120.479 22.2448 120.297 21.0727 120.368 19.9022ZM129.282 25.1918C131.948 25.1918 133.448 23.2571 133.448 19.9022C133.448 16.5473 131.907 14.5508 129.282 14.5508C126.658 14.5508 125.117 16.4856 125.117 19.9022C125.117 23.3188 126.596 25.1918 129.282 25.1918Z" fill="#ffffff"/>
<path d="M141.26 28.0111V16.4439C141.16 15.7442 141.226 15.0311 141.452 14.3607C141.678 13.6903 142.058 13.0808 142.563 12.5801C143.067 12.0794 143.682 11.7013 144.36 11.4753C145.037 11.2493 145.759 11.1817 146.467 11.2778H151.653C151.704 11.271 151.756 11.2759 151.805 11.2921C151.853 11.3083 151.897 11.3354 151.934 11.3713C151.97 11.4071 151.997 11.4508 152.014 11.4988C152.03 11.5469 152.035 11.598 152.028 11.6483V14.6533C152.031 14.7027 152.024 14.7522 152.006 14.7985C151.988 14.8448 151.961 14.8869 151.925 14.9219C151.89 14.9569 151.847 14.9841 151.8 15.0017C151.753 15.0192 151.703 15.0267 151.653 15.0237H145.863V28.0111C145.863 28.258 145.738 28.3815 145.53 28.3815H141.635C141.584 28.3883 141.533 28.3834 141.484 28.3672C141.435 28.351 141.391 28.3239 141.355 28.288C141.319 28.2522 141.291 28.2085 141.275 28.1605C141.258 28.1124 141.253 28.0613 141.26 28.0111Z" fill="#ffffff"/>
<path d="M153.673 19.9016C153.588 18.7169 153.763 17.5281 154.187 16.4166C154.61 15.3052 155.272 14.2974 156.127 13.4625C156.982 12.6276 158.009 11.9854 159.139 11.5798C160.268 11.1743 161.473 11.015 162.671 11.113C167.878 11.113 171.002 14.4062 171.002 19.8399V20.7661C171.002 20.8643 170.962 20.9585 170.892 21.028C170.822 21.0975 170.726 21.1365 170.627 21.1365H158.422C158.4 21.6953 158.498 22.2524 158.708 22.7714C158.919 23.2904 159.239 23.7595 159.646 24.1481C160.053 24.5366 160.538 24.8359 161.07 25.0263C161.602 25.2167 162.169 25.2939 162.733 25.253C163.489 25.3574 164.257 25.2121 164.92 24.8399C165.583 24.4676 166.103 23.8893 166.399 23.1947C166.404 23.1487 166.419 23.1041 166.441 23.0635C166.464 23.023 166.495 22.9873 166.532 22.9586C166.568 22.9299 166.611 22.9087 166.656 22.8962C166.701 22.8837 166.748 22.8803 166.795 22.886H170.565C170.835 22.886 170.981 22.886 170.939 23.1536C170.335 26.4056 167.399 28.5667 162.608 28.5667C161.427 28.6534 160.24 28.49 159.128 28.0875C158.015 27.6849 157.002 27.0525 156.156 26.2324C155.311 25.4124 154.652 24.4235 154.224 23.3318C153.795 22.2401 153.608 21.0707 153.673 19.9016ZM166.524 18.3991C166.559 17.8871 166.485 17.3734 166.307 16.8914C166.129 16.4094 165.85 15.9698 165.488 15.6011C165.127 15.2324 164.691 14.9428 164.21 14.7512C163.728 14.5595 163.211 14.47 162.692 14.4885C162.154 14.4575 161.616 14.5359 161.11 14.7188C160.604 14.9016 160.142 15.1851 159.751 15.5517C159.361 15.9182 159.051 16.3601 158.84 16.8498C158.629 17.3396 158.522 17.8669 158.526 18.3991H166.524Z" fill="#ffffff"/>
</svg>
