<?xml version="1.0" encoding="UTF-8"?>
<!DOCTYPE svg PUBLIC "-//W3C//DTD SVG 1.1//EN" "http://www.w3.org/Graphics/SVG/1.1/DTD/svg11.dtd">
<svg xmlns="http://www.w3.org/2000/svg" version="1.1" width="837px" height="298px" style="shape-rendering:geometricPrecision; text-rendering:geometricPrecision; image-rendering:optimizeQuality; fill-rule:evenodd; clip-rule:evenodd" xmlns:xlink="http://www.w3.org/1999/xlink">
<g><path style="opacity:0.635" fill="#f5b58d" d="M 26.5,6.5 C 30.7016,6.18325 34.7016,6.51658 38.5,7.5C 33.7971,7.43718 29.1304,7.77052 24.5,8.5C 25.1667,7.83333 25.8333,7.16667 26.5,6.5 Z"/></g>
<g><path style="opacity:1" fill="#f47026" d="M 38.5,7.5 C 40.0326,9.24512 42.0326,10.2451 44.5,10.5C 48.0441,13.3811 50.3774,17.0478 51.5,21.5C 50.5,21.5 49.5,21.5 48.5,21.5C 48.7394,19.5328 48.4061,17.6995 47.5,16C 43.0317,13.6189 38.365,11.6189 33.5,10C 29.4463,10.0089 25.4463,10.6756 21.5,12C 20.5291,13.4813 19.1958,14.3146 17.5,14.5C 19.2393,11.7573 21.5726,9.75731 24.5,8.5C 29.1304,7.77052 33.7971,7.43718 38.5,7.5 Z"/></g>
<g><path style="opacity:0.475" fill="#f5b48b" d="M 38.5,7.5 C 40.9674,7.75488 42.9674,8.75488 44.5,10.5C 42.0326,10.2451 40.0326,9.24512 38.5,7.5 Z"/></g>
<g><path style="opacity:0.137" fill="#feebdf" d="M 26.5,6.5 C 35.202,3.75559 42.702,5.75559 49,12.5C 51.7354,17.2991 53.9021,22.2991 55.5,27.5C 54.1667,25.5 52.8333,23.5 51.5,21.5C 50.3774,17.0478 48.0441,13.3811 44.5,10.5C 42.9674,8.75488 40.9674,7.75488 38.5,7.5C 34.7016,6.51658 30.7016,6.18325 26.5,6.5 Z"/></g>
<g><path style="opacity:0.905" fill="#f48c4f" d="M 104.5,9.5 C 105.663,34.33 105.83,59.33 105,84.5C 104.617,85.056 104.117,85.3893 103.5,85.5C 104.481,60.2113 104.815,34.878 104.5,9.5 Z"/></g>
<g><path style="opacity:0.357" fill="#ccc9cd" d="M 479.5,25.5 C 479.5,23.5 479.5,21.5 479.5,19.5C 475.833,19.5 472.167,19.5 468.5,19.5C 468.5,22.1667 468.5,24.8333 468.5,27.5C 467.523,24.7131 467.19,21.7131 467.5,18.5C 471.833,18.5 476.167,18.5 480.5,18.5C 480.802,21.0593 480.468,23.3926 479.5,25.5 Z"/></g>
<g><path style="opacity:1" fill="#fa610a" d="M 51.5,21.5 C 51.7516,25.3267 53.0849,28.6601 55.5,31.5C 55.5,32.1667 55.8333,32.5 56.5,32.5C 56.7701,36.3576 58.1034,39.691 60.5,42.5C 61.1667,42.5 61.5,42.8333 61.5,43.5C 61.3433,44.8734 61.51,46.2068 62,47.5C 64.0388,52.2632 66.5388,56.5966 69.5,60.5C 69.2594,62.8984 69.9261,64.8984 71.5,66.5C 71.6917,69.6008 72.3584,72.6008 73.5,75.5C 72.3112,76.4287 70.9778,76.762 69.5,76.5C 69.6465,79.4431 70.3132,82.2764 71.5,85C 71.1667,85.5 70.8333,86 70.5,86.5C 69.6971,83.9784 68.3638,81.9784 66.5,80.5C 62.7706,74.0832 59.4373,67.4166 56.5,60.5C 56.2753,57.4542 54.942,55.1209 52.5,53.5C 51.7866,50.4061 50.7866,47.4061 49.5,44.5C 49.2451,42.0326 48.2451,40.0326 46.5,38.5C 46.2451,36.0326 45.2451,34.0326 43.5,32.5C 41.3346,28.0841 39.0013,23.7508 36.5,19.5C 33.6447,18.1968 30.6447,18.1968 27.5,19.5C 26.8728,20.4168 26.5394,21.4168 26.5,22.5C 25.8826,22.6107 25.3826,22.944 25,23.5C 24.1709,43.3376 24.3376,63.0043 25.5,82.5C 29.3112,83.6453 33.3112,83.8119 37.5,83C 38.3805,82.2917 39.0472,81.4584 39.5,80.5C 39.5,80.1667 39.5,79.8333 39.5,79.5C 40.7495,78.2225 42.2495,77.2225 44,76.5C 45.6436,78.0638 47.1436,79.7305 48.5,81.5C 48.1543,82.8492 47.821,84.1825 47.5,85.5C 46.6618,85.8417 46.3284,86.5084 46.5,87.5C 45.5326,88.8062 44.1993,89.4729 42.5,89.5C 42.5,90.5 42.5,91.5 42.5,92.5C 33.1825,93.5026 23.8492,93.5026 14.5,92.5C 14.3334,68.4977 14.5,44.4977 15,20.5C 16.3187,18.7128 17.152,16.7128 17.5,14.5C 19.1958,14.3146 20.5291,13.4813 21.5,12C 25.4463,10.6756 29.4463,10.0089 33.5,10C 38.365,11.6189 43.0317,13.6189 47.5,16C 48.4061,17.6995 48.7394,19.5328 48.5,21.5C 49.5,21.5 50.5,21.5 51.5,21.5 Z"/></g>
<g><path style="opacity:0.824" fill="#f59860" d="M 36.5,19.5 C 32.5724,18.9758 29.239,19.9758 26.5,22.5C 26.5394,21.4168 26.8728,20.4168 27.5,19.5C 30.6447,18.1968 33.6447,18.1968 36.5,19.5 Z"/></g>
<g><path style="opacity:1" fill="#4e4553" d="M 479.5,25.5 C 479.625,31.2031 479.292,36.8698 478.5,42.5C 475.428,42.8174 472.428,42.4841 469.5,41.5C 468.557,36.8999 468.223,32.2332 468.5,27.5C 468.5,24.8333 468.5,22.1667 468.5,19.5C 472.167,19.5 475.833,19.5 479.5,19.5C 479.5,21.5 479.5,23.5 479.5,25.5 Z"/></g>
<g><path style="opacity:0.014" fill="#fbfafb" d="M 167.5,22.5 C 171.311,21.3547 175.311,21.1881 179.5,22C 180,22.5 180.5,23 181,23.5C 181.829,43.0044 181.662,62.3377 180.5,81.5C 180.83,62.326 180.497,43.326 179.5,24.5C 179.5,23.8333 179.167,23.5 178.5,23.5C 175.038,22.5184 171.371,22.185 167.5,22.5 Z"/></g>
<g><path style="opacity:1" fill="#f59159" d="M 51.5,21.5 C 52.8333,23.5 54.1667,25.5 55.5,27.5C 55.5,28.8333 55.5,30.1667 55.5,31.5C 53.0849,28.6601 51.7516,25.3267 51.5,21.5 Z"/></g>
<g><path style="opacity:0.098" fill="#fde2d1" d="M 100.5,92.5 C 101.441,90.9505 102.107,89.2838 102.5,87.5C 103.338,87.1583 103.672,86.4916 103.5,85.5C 104.117,85.3893 104.617,85.056 105,84.5C 105.83,59.33 105.663,34.33 104.5,9.5C 93.5,9.5 82.5,9.5 71.5,9.5C 70.1781,14.4736 68.5115,19.3069 66.5,24C 67.9547,27.7531 69.288,31.5864 70.5,35.5C 71.5,35.5 72.5,35.5 73.5,35.5C 73.9138,31.1719 75.2471,27.1719 77.5,23.5C 78.2891,23.2172 78.9558,22.7172 79.5,22C 83.8206,21.501 88.1539,21.3343 92.5,21.5C 93.1665,31.1609 93.4998,40.9942 93.5,51C 93.453,61.6576 92.7863,72.1576 91.5,82.5C 88.7543,84.1264 85.7543,84.7931 82.5,84.5C 80.5491,83.2842 79.0491,81.6175 78,79.5C 76.8621,74.5574 74.6955,70.2241 71.5,66.5C 71.7406,64.1016 71.0739,62.1016 69.5,60.5C 67.5997,54.3708 64.933,48.7041 61.5,43.5C 61.5,42.8333 61.1667,42.5 60.5,42.5C 60.6567,41.1266 60.49,39.7932 60,38.5C 58.9179,36.3819 57.7512,34.3819 56.5,32.5C 55.8333,32.5 55.5,32.1667 55.5,31.5C 55.5,30.1667 55.5,28.8333 55.5,27.5C 64.7711,45.0463 73.2711,63.0463 81,81.5C 85.0937,84.4756 88.427,83.809 91,79.5C 91.4999,60.5029 91.6666,41.5029 91.5,22.5C 87.8183,22.3347 84.1516,22.5014 80.5,23C 77.9962,28.5173 75.4962,34.0173 73,39.5C 68.2446,35.8266 65.4113,30.9933 64.5,25C 65.8011,19.2648 67.8011,13.7648 70.5,8.5C 81.7278,7.82319 92.8945,7.15652 104,6.5C 105,7.16667 106,7.83333 107,8.5C 107.667,33.1667 107.667,57.8333 107,82.5C 106.04,86.7869 103.874,90.1202 100.5,92.5 Z"/></g>
<g><path style="opacity:0.236" fill="#d9d7da" d="M 244.5,22.5 C 249.511,22.3341 254.511,22.5007 259.5,23C 260.833,27 260.833,31 259.5,35C 263.5,35.3333 267.5,35.6667 271.5,36C 273.757,39.2377 274.09,42.7377 272.5,46.5C 268.204,47.3275 263.871,47.8275 259.5,48C 260.482,55.747 260.815,63.5803 260.5,71.5C 264.555,71.1758 268.555,71.5091 272.5,72.5C 273.585,75.773 273.752,79.1064 273,82.5C 266.304,84.9459 259.471,85.1126 252.5,83C 245.704,79.2447 242.704,73.4114 243.5,65.5C 244.242,59.5211 244.575,53.5211 244.5,47.5C 242.167,47.5 239.833,47.5 237.5,47.5C 237.335,43.8183 237.501,40.1516 238,36.5C 240.041,35.5769 242.208,35.2436 244.5,35.5C 244.5,31.1667 244.5,26.8333 244.5,22.5 Z"/></g>
<g><path style="opacity:1" fill="#2e2434" d="M 258.5,36.5 C 262.298,37.4834 266.298,37.8168 270.5,37.5C 270.5,40.1667 270.5,42.8333 270.5,45.5C 266.5,45.5 262.5,45.5 258.5,45.5C 258.173,55.015 258.506,64.3483 259.5,73.5C 262.625,74.4794 265.958,74.8128 269.5,74.5C 269.5,76.5 269.5,78.5 269.5,80.5C 263.833,80.5 258.167,80.5 252.5,80.5C 249.178,79.3418 247.012,77.0084 246,73.5C 245.5,64.1726 245.334,54.8393 245.5,45.5C 243.37,44.0359 242.037,42.0359 241.5,39.5C 243.993,39.6709 245.826,38.6709 247,36.5C 247.499,32.8484 247.665,29.1817 247.5,25.5C 250.833,25.5 254.167,25.5 257.5,25.5C 257.185,29.3714 257.518,33.0381 258.5,36.5 Z"/></g>
<g><path style="opacity:0.913" fill="#5b5461" d="M 168.5,24.5 C 168.5,37.5 168.5,50.5 168.5,63.5C 167.209,63.7373 166.209,63.404 165.5,62.5C 167.16,50.0329 168.16,37.3663 168.5,24.5 Z"/></g>
<g><path style="opacity:1" fill="#2b2031" d="M 168.5,24.5 C 171.833,24.5 175.167,24.5 178.5,24.5C 178.5,43.5 178.5,62.5 178.5,81.5C 173.77,81.7166 169.103,81.3833 164.5,80.5C 156.993,68.1477 148.993,56.1477 140.5,44.5C 140.179,42.9519 139.179,42.2852 137.5,42.5C 136.505,55.3226 136.171,68.3226 136.5,81.5C 133.5,81.5 130.5,81.5 127.5,81.5C 127.5,62.8333 127.5,44.1667 127.5,25.5C 131.514,25.3345 135.514,25.5012 139.5,26C 140.9,30.3394 143.567,33.506 147.5,35.5C 153.651,43.7883 159.317,52.4549 164.5,61.5C 164.5,62.1667 164.833,62.5 165.5,62.5C 166.209,63.404 167.209,63.7373 168.5,63.5C 168.5,50.5 168.5,37.5 168.5,24.5 Z"/></g>
<g><path style="opacity:0.546" fill="#fabb95" d="M 26.5,22.5 C 25.5238,42.454 25.1905,62.454 25.5,82.5C 24.3376,63.0043 24.1709,43.3376 25,23.5C 25.3826,22.944 25.8826,22.6107 26.5,22.5 Z"/></g>
<g><path style="opacity:0.89" fill="#f49157" d="M 92.5,21.5 C 92.5,21.1667 92.5,20.8333 92.5,20.5C 93.1667,20.5 93.8333,20.5 94.5,20.5C 94.6666,40.8361 94.5,61.1694 94,81.5C 93.3292,82.2524 92.4959,82.5858 91.5,82.5C 92.7863,72.1576 93.453,61.6576 93.5,51C 93.4998,40.9942 93.1665,31.1609 92.5,21.5 Z"/></g>
<g><path style="opacity:0.084" fill="#e1e0e3" d="M 167.5,22.5 C 167.189,35.7983 166.189,48.7983 164.5,61.5C 159.317,52.4549 153.651,43.7883 147.5,35.5C 145.419,31.5697 143.086,27.7364 140.5,24C 135.845,23.5008 131.179,23.3342 126.5,23.5C 126.5,43.1667 126.5,62.8333 126.5,82.5C 130.167,82.5 133.833,82.5 137.5,82.5C 138.167,82.5 138.5,82.1667 138.5,81.5C 139.331,69.6737 139.831,57.6737 140,45.5C 140.717,46.0442 141.217,46.7109 141.5,47.5C 140.669,58.9928 140.169,70.6595 140,82.5C 139.5,83 139,83.5 138.5,84C 134.129,84.8275 129.795,84.6609 125.5,83.5C 124.346,63.5434 124.179,43.5434 125,23.5C 125.5,23 126,22.5 126.5,22C 131.618,21.112 136.618,21.4453 141.5,23C 149.728,34.898 157.561,47.0646 165,59.5C 164.849,46.7926 165.683,34.4593 167.5,22.5 Z"/></g>
<g><path style="opacity:0.952" fill="#4b4551" d="M 147.5,35.5 C 143.567,33.506 140.9,30.3394 139.5,26C 135.514,25.5012 131.514,25.3345 127.5,25.5C 127.5,44.1667 127.5,62.8333 127.5,81.5C 130.5,81.5 133.5,81.5 136.5,81.5C 136.171,68.3226 136.505,55.3226 137.5,42.5C 137.5,55.8333 137.5,69.1667 137.5,82.5C 133.833,82.5 130.167,82.5 126.5,82.5C 126.5,62.8333 126.5,43.1667 126.5,23.5C 131.179,23.3342 135.845,23.5008 140.5,24C 143.086,27.7364 145.419,31.5697 147.5,35.5 Z"/></g>
<g><path style="opacity:1" fill="#f27d38" d="M 17.5,14.5 C 17.152,16.7128 16.3187,18.7128 15,20.5C 14.5,44.4977 14.3334,68.4977 14.5,92.5C 23.8492,93.5026 33.1825,93.5026 42.5,92.5C 42.5,91.5 42.5,90.5 42.5,89.5C 44.1993,89.4729 45.5326,88.8062 46.5,87.5C 46.2024,90.2646 45.2024,92.7646 43.5,95C 33.2562,95.8186 23.0895,95.652 13,94.5C 12.3333,70.5 12.3333,46.5 13,22.5C 13.4877,19.1451 14.9877,16.4784 17.5,14.5 Z"/></g>
<g><path style="opacity:0.902" fill="#938d96" d="M 516.5,33.5 C 509.798,33.3357 503.131,33.669 496.5,34.5C 500.034,32.9524 503.867,32.2857 508,32.5C 511.021,32.5022 513.854,32.8356 516.5,33.5 Z"/></g>
<g><path style="opacity:1" fill="#423947" d="M 516.5,33.5 C 519.079,33.3939 521.412,34.0605 523.5,35.5C 522.659,37.3792 522.325,39.3792 522.5,41.5C 522.672,42.4916 522.338,43.1583 521.5,43.5C 519.302,44.0671 516.969,44.0671 514.5,43.5C 513.833,43.5 513.167,43.5 512.5,43.5C 511.223,42.1024 509.557,41.4357 507.5,41.5C 505.645,41.3402 504.312,42.0069 503.5,43.5C 501.448,44.0527 501.115,45.0527 502.5,46.5C 508.058,49.4171 513.724,52.2504 519.5,55C 524.927,59.1105 526.594,64.2772 524.5,70.5C 522.455,71.9228 521.455,73.9228 521.5,76.5C 520.341,78.2503 518.674,79.2503 516.5,79.5C 509.209,80.3924 501.876,80.7257 494.5,80.5C 492.901,80.7678 491.568,80.4345 490.5,79.5C 489.213,75.7316 489.213,72.0649 490.5,68.5C 496.361,70.4396 502.361,71.273 508.5,71C 510.18,70.6532 511.18,69.6532 511.5,68C 510.656,65.9933 509.323,64.4933 507.5,63.5C 505.38,60.5312 502.38,59.1979 498.5,59.5C 498.027,58.0937 497.027,57.427 495.5,57.5C 495.027,56.0937 494.027,55.427 492.5,55.5C 491.829,54.1529 491.829,52.9862 492.5,52C 491.473,51.4867 490.473,50.9867 489.5,50.5C 488.842,49.2067 488.508,47.7067 488.5,46C 488.336,43.4563 489.003,41.2897 490.5,39.5C 491.833,38.8333 492.833,37.8333 493.5,36.5C 493.973,35.0937 494.973,34.427 496.5,34.5C 503.131,33.669 509.798,33.3357 516.5,33.5 Z"/></g>
<g><path style="opacity:0.431" fill="#b0acb3" d="M 167.5,22.5 C 171.371,22.185 175.038,22.5184 178.5,23.5C 174.958,23.1872 171.625,23.5206 168.5,24.5C 168.16,37.3663 167.16,50.0329 165.5,62.5C 164.833,62.5 164.5,62.1667 164.5,61.5C 166.189,48.7983 167.189,35.7983 167.5,22.5 Z"/></g>
<g><path style="opacity:0.706" fill="#87828a" d="M 291.5,36.5 C 297.026,36.1786 302.36,36.5119 307.5,37.5C 301.773,37.2598 296.106,37.5931 290.5,38.5C 290.833,37.8333 291.167,37.1667 291.5,36.5 Z"/></g>
<g><path style="opacity:0.741" fill="#f3a16b" d="M 43.5,32.5 C 45.2451,34.0326 46.2451,36.0326 46.5,38.5C 44.7549,36.9674 43.7549,34.9674 43.5,32.5 Z"/></g>
<g><path style="opacity:0.973" fill="#867f89" d="M 523.5,35.5 C 524.484,37.5979 524.151,39.5979 522.5,41.5C 522.325,39.3792 522.659,37.3792 523.5,35.5 Z"/></g>
<g><path style="opacity:0.102" fill="#fee6d7" d="M 36.5,19.5 C 39.0013,23.7508 41.3346,28.0841 43.5,32.5C 43.7549,34.9674 44.7549,36.9674 46.5,38.5C 46.7549,40.9674 47.7549,42.9674 49.5,44.5C 50.7866,47.4061 51.7866,50.4061 52.5,53.5C 53.4676,56.1003 54.8009,58.4336 56.5,60.5C 59.4373,67.4166 62.7706,74.0832 66.5,80.5C 67.2772,86.8792 70.2772,92.0459 75.5,96C 81.6812,96.8192 87.6812,96.6525 93.5,95.5C 96.0215,94.9885 98.3549,93.9885 100.5,92.5C 96.7874,97.1856 91.7874,99.5189 85.5,99.5C 78.9909,99.3906 73.4909,97.0572 69,92.5C 58.1187,70.0716 47.7854,47.405 38,24.5C 33.3303,19.0496 29.6636,19.7163 27,26.5C 26.3333,44.5 26.3333,62.5 27,80.5C 29.7372,81.6105 32.5706,81.7772 35.5,81C 38.3846,76.063 40.8846,70.8964 43,65.5C 45.0449,63.9568 46.5449,64.2901 47.5,66.5C 43.4378,66.9354 41.4378,69.2687 41.5,73.5C 39.9261,75.1016 39.2594,77.1016 39.5,79.5C 39.5,79.8333 39.5,80.1667 39.5,80.5C 35.0968,82.2994 30.4302,82.966 25.5,82.5C 25.1905,62.454 25.5238,42.454 26.5,22.5C 29.239,19.9758 32.5724,18.9758 36.5,19.5 Z"/></g>
<g><path style="opacity:0.937" fill="#f58f51" d="M 56.5,32.5 C 57.7512,34.3819 58.9179,36.3819 60,38.5C 60.49,39.7932 60.6567,41.1266 60.5,42.5C 58.1034,39.691 56.7701,36.3576 56.5,32.5 Z"/></g>
<g><path style="opacity:1" fill="#453d4a" d="M 258.5,36.5 C 257.518,33.0381 257.185,29.3714 257.5,25.5C 254.167,25.5 250.833,25.5 247.5,25.5C 247.665,29.1817 247.499,32.8484 247,36.5C 245.826,38.6709 243.993,39.6709 241.5,39.5C 242.037,42.0359 243.37,44.0359 245.5,45.5C 243.5,45.5 241.5,45.5 239.5,45.5C 239.5,42.8333 239.5,40.1667 239.5,37.5C 241.5,37.5 243.5,37.5 245.5,37.5C 245.334,33.1539 245.501,28.8206 246,24.5C 250,23.1667 254,23.1667 258,24.5C 258.499,28.4862 258.666,32.4862 258.5,36.5 Z"/></g>
<g><path style="opacity:0.071" fill="#e0dfe1" d="M 294.5,49.5 C 294.953,48.5416 295.619,47.7083 296.5,47C 300.221,46.3219 303.888,46.4886 307.5,47.5C 308.752,49.0009 309.752,50.6675 310.5,52.5C 314.298,53.4834 318.298,53.8168 322.5,53.5C 322.829,50.7718 322.163,48.4385 320.5,46.5C 317.415,41.7837 313.082,38.7837 307.5,37.5C 302.36,36.5119 297.026,36.1786 291.5,36.5C 306.039,31.5182 316.872,35.8515 324,49.5C 324.579,54.8345 322.079,56.8345 316.5,55.5C 314.5,55.3333 312.5,55.1667 310.5,55C 307.088,47.4004 301.755,45.567 294.5,49.5 Z"/></g>
<g><path style="opacity:0.388" fill="#bebabf" d="M 493.5,36.5 C 492.833,37.8333 491.833,38.8333 490.5,39.5C 490.5,37.5 491.5,36.5 493.5,36.5 Z"/></g>
<g><path style="opacity:0.69" fill="#a5a0a8" d="M 512.5,43.5 C 509.458,42.4589 506.458,42.4589 503.5,43.5C 504.312,42.0069 505.645,41.3402 507.5,41.5C 509.557,41.4357 511.223,42.1024 512.5,43.5 Z"/></g>
<g><path style="opacity:0.784" fill="#f19360" d="M 46.5,38.5 C 48.2451,40.0326 49.2451,42.0326 49.5,44.5C 47.7549,42.9674 46.7549,40.9674 46.5,38.5 Z"/></g>
<g><path style="opacity:1" fill="#2d2333" d="M 307.5,37.5 C 313.082,38.7837 317.415,41.7837 320.5,46.5C 320.357,48.2624 320.691,49.9291 321.5,51.5C 317.893,52.4892 314.226,52.8226 310.5,52.5C 309.752,50.6675 308.752,49.0009 307.5,47.5C 307.389,46.8826 307.056,46.3826 306.5,46C 295.356,43.646 289.69,48.146 289.5,59.5C 289.667,61.8333 289.833,64.1667 290,66.5C 290.278,67.4158 290.778,68.0825 291.5,68.5C 294.14,73.8983 298.473,75.8983 304.5,74.5C 307.848,73.9884 310.181,72.155 311.5,69C 314.146,68.5026 316.813,68.3359 319.5,68.5C 319.5,70.5 319.5,72.5 319.5,74.5C 317.116,78.8896 313.449,81.223 308.5,81.5C 301.798,81.6643 295.131,81.331 288.5,80.5C 282.158,77.4871 278.491,72.4871 277.5,65.5C 277.413,60.4635 277.746,55.4635 278.5,50.5C 280.833,44.8333 284.833,40.8333 290.5,38.5C 296.106,37.5931 301.773,37.2598 307.5,37.5 Z"/></g>
<g><path style="opacity:0.098" fill="#dddcde" d="M 348.5,34.5 C 371.753,35.016 381.253,46.6826 377,69.5C 368.847,84.2237 356.68,88.7237 340.5,83C 327.445,75.3468 323.279,64.1801 328,49.5C 332.236,40.74 339.07,35.74 348.5,34.5 Z M 344.5,50.5 C 345.167,50.5 345.5,50.1667 345.5,49.5C 355.87,45.1895 361.203,48.6895 361.5,60C 360.877,71.6939 355.377,74.8605 345,69.5C 341.886,63.2721 341.72,56.9388 344.5,50.5 Z"/></g>
<g><path style="opacity:1" fill="#2d2333" d="M 359.5,37.5 C 363.947,38.6146 367.613,40.9479 370.5,44.5C 374.392,52.7638 375.392,61.4304 373.5,70.5C 369.934,78.0529 363.934,82.0529 355.5,82.5C 349.125,83.2136 343.458,81.7136 338.5,78C 338.833,77.6667 339.167,77.3333 339.5,77C 337.866,76.5065 336.199,76.3398 334.5,76.5C 332.833,73.8333 331.167,71.1667 329.5,68.5C 329.249,62.1082 329.582,55.7748 330.5,49.5C 332.5,44.1667 336.167,40.5 341.5,38.5C 347.464,37.6932 353.464,37.3599 359.5,37.5 Z M 344.5,50.5 C 345.167,50.5 345.5,50.1667 345.5,49.5C 355.87,45.1895 361.203,48.6895 361.5,60C 360.877,71.6939 355.377,74.8605 345,69.5C 341.886,63.2721 341.72,56.9388 344.5,50.5 Z"/></g>
<g><path style="opacity:0.689" fill="#817c85" d="M 359.5,37.5 C 353.464,37.3599 347.464,37.6932 341.5,38.5C 344.695,36.9704 348.195,36.3037 352,36.5C 354.69,36.5029 357.19,36.8362 359.5,37.5 Z"/></g>
<g><path style="opacity:0.965" fill="#9e99a1" d="M 514.5,43.5 C 516.969,44.0671 519.302,44.0671 521.5,43.5C 521.719,44.675 521.386,45.675 520.5,46.5C 518.22,45.8641 516.22,44.8641 514.5,43.5 Z"/></g>
<g><path style="opacity:0.384" fill="#b1adb3" d="M 503.5,43.5 C 502.89,44.391 502.557,45.391 502.5,46.5C 501.115,45.0527 501.448,44.0527 503.5,43.5 Z"/></g>
<g><path style="opacity:0.73" fill="#726d76" d="M 168.5,24.5 C 171.625,23.5206 174.958,23.1872 178.5,23.5C 179.167,23.5 179.5,23.8333 179.5,24.5C 179.5,43.8333 179.5,63.1667 179.5,82.5C 174.821,82.6658 170.155,82.4992 165.5,82C 164.944,81.6174 164.611,81.1174 164.5,80.5C 169.103,81.3833 173.77,81.7166 178.5,81.5C 178.5,62.5 178.5,43.5 178.5,24.5C 175.167,24.5 171.833,24.5 168.5,24.5 Z"/></g>
<g><path style="opacity:0.937" fill="#f3975e" d="M 61.5,43.5 C 64.933,48.7041 67.5997,54.3708 69.5,60.5C 66.5388,56.5966 64.0388,52.2632 62,47.5C 61.51,46.2068 61.3433,44.8734 61.5,43.5 Z"/></g>
<g><path style="opacity:0.29" fill="#9e99a0" d="M 307.5,47.5 C 303.888,46.4886 300.221,46.3219 296.5,47C 295.619,47.7083 294.953,48.5416 294.5,49.5C 292.39,50.4525 291.223,52.1192 291,54.5C 290.352,59.2041 290.519,63.8708 291.5,68.5C 290.778,68.0825 290.278,67.4158 290,66.5C 289.833,64.1667 289.667,61.8333 289.5,59.5C 289.69,48.146 295.356,43.646 306.5,46C 307.056,46.3826 307.389,46.8826 307.5,47.5 Z"/></g>
<g><path style="opacity:0.255" fill="#aaa7ac" d="M 356.5,46.5 C 353.482,46.3354 350.482,46.502 347.5,47C 346.619,47.7083 345.953,48.5416 345.5,49.5C 345.5,50.1667 345.167,50.5 344.5,50.5C 343.034,51.347 342.2,52.6803 342,54.5C 341.502,57.8168 341.335,61.1501 341.5,64.5C 339.058,57.2896 340.725,51.123 346.5,46C 350.027,45.1925 353.36,45.3592 356.5,46.5 Z"/></g>
<g><path style="opacity:0.013" fill="#e7e5e7" d="M 391.5,36.5 C 398.902,35.1729 406.402,35.1729 414,36.5C 415.64,40.1263 415.806,43.793 414.5,47.5C 412.892,48.3184 411.225,48.9851 409.5,49.5C 405.906,48.5741 402.24,48.2408 398.5,48.5C 398.667,59.8382 398.5,71.1716 398,82.5C 395.787,83.7595 393.287,84.4262 390.5,84.5C 387.911,84.4728 385.411,84.1394 383,83.5C 382.333,70.5 382.333,57.5 383,44.5C 384.413,40.2518 387.246,37.5852 391.5,36.5 Z"/></g>
<g><path style="opacity:0.932" fill="#58525c" d="M 388.5,40.5 C 388.315,42.1958 387.481,43.5291 386,44.5C 385.5,56.8288 385.333,69.1622 385.5,81.5C 388.833,81.5 392.167,81.5 395.5,81.5C 395.172,69.9877 395.505,58.6544 396.5,47.5C 396.5,58.8333 396.5,70.1667 396.5,81.5C 392.702,82.4834 388.702,82.8168 384.5,82.5C 384.333,69.4957 384.5,56.4957 385,43.5C 386.039,42.2899 387.206,41.2899 388.5,40.5 Z"/></g>
<g><path style="opacity:1" fill="#291e30" d="M 397.5,46.5 C 396.833,46.5 396.5,46.8333 396.5,47.5C 395.505,58.6544 395.172,69.9877 395.5,81.5C 392.167,81.5 388.833,81.5 385.5,81.5C 385.333,69.1622 385.5,56.8288 386,44.5C 387.481,43.5291 388.315,42.1958 388.5,40.5C 395.956,38.6934 403.622,38.0267 411.5,38.5C 411.5,40.8333 411.5,43.1667 411.5,45.5C 406.637,45.1805 401.97,45.5139 397.5,46.5 Z"/></g>
<g><path style="opacity:0.957" fill="#49424f" d="M 412.5,37.5 C 413.833,40.5 413.833,43.5 412.5,46.5C 407.5,46.5 402.5,46.5 397.5,46.5C 401.97,45.5139 406.637,45.1805 411.5,45.5C 411.5,43.1667 411.5,40.8333 411.5,38.5C 403.622,38.0267 395.956,38.6934 388.5,40.5C 388.833,39.5 389.5,38.8333 390.5,38.5C 397.777,37.5696 405.11,37.2363 412.5,37.5 Z"/></g>
<g><path style="opacity:0.471" fill="#a29ea5" d="M 391.5,36.5 C 398.687,36.1755 405.687,36.5088 412.5,37.5C 405.11,37.2363 397.777,37.5696 390.5,38.5C 390.833,37.8333 391.167,37.1667 391.5,36.5 Z"/></g>
<g><path style="opacity:0.247" fill="#c2bfc4" d="M 397.5,46.5 C 402.5,46.5 407.5,46.5 412.5,46.5C 407.695,47.4872 402.695,47.8205 397.5,47.5C 397.828,59.0123 397.495,70.3456 396.5,81.5C 396.5,70.1667 396.5,58.8333 396.5,47.5C 396.5,46.8333 396.833,46.5 397.5,46.5 Z"/></g>
<g><path style="opacity:1" fill="#7a727d" d="M 489.5,50.5 C 490.473,50.9867 491.473,51.4867 492.5,52C 491.829,52.9862 491.829,54.1529 492.5,55.5C 490.75,54.3406 489.75,52.674 489.5,50.5 Z"/></g>
<g><path style="opacity:0.945" fill="#59545d" d="M 320.5,46.5 C 322.163,48.4385 322.829,50.7718 322.5,53.5C 318.298,53.8168 314.298,53.4834 310.5,52.5C 314.226,52.8226 317.893,52.4892 321.5,51.5C 320.691,49.9291 320.357,48.2624 320.5,46.5 Z"/></g>
<g><path style="opacity:0.58" fill="#f7aa80" d="M 52.5,53.5 C 54.942,55.1209 56.2753,57.4542 56.5,60.5C 54.8009,58.4336 53.4676,56.1003 52.5,53.5 Z"/></g>
<g><path style="opacity:0.962" fill="#49434e" d="M 370.5,44.5 C 372.619,45.9861 374.119,47.9861 375,50.5C 375.667,56.5 375.667,62.5 375,68.5C 374.722,69.4158 374.222,70.0825 373.5,70.5C 375.392,61.4304 374.392,52.7638 370.5,44.5 Z"/></g>
<g><path style="opacity:0.541" fill="#a6a1a8" d="M 492.5,55.5 C 494.027,55.427 495.027,56.0937 495.5,57.5C 493.973,57.573 492.973,56.9063 492.5,55.5 Z"/></g>
<g><path style="opacity:0.722" fill="#7c767f" d="M 137.5,42.5 C 139.179,42.2852 140.179,42.9519 140.5,44.5C 138.52,56.4547 137.854,68.788 138.5,81.5C 138.5,82.1667 138.167,82.5 137.5,82.5C 137.5,69.1667 137.5,55.8333 137.5,42.5 Z"/></g>
<g><path style="opacity:0.763" fill="#7a737c" d="M 330.5,49.5 C 329.582,55.7748 329.249,62.1082 329.5,68.5C 328.347,62.6812 328.181,56.6812 329,50.5C 329.383,49.944 329.883,49.6107 330.5,49.5 Z"/></g>
<g><path style="opacity:0.278" fill="#c1bdc2" d="M 495.5,57.5 C 497.027,57.427 498.027,58.0937 498.5,59.5C 496.973,59.573 495.973,58.9063 495.5,57.5 Z"/></g>
<g><path style="opacity:0.533" fill="#8c868f" d="M 361.5,50.5 C 362.966,51.347 363.8,52.6803 364,54.5C 364.808,58.0267 364.641,61.3601 363.5,64.5C 363.478,59.7277 362.811,55.0611 361.5,50.5 Z"/></g>
<g><path style="opacity:1" fill="#7d7680" d="M 498.5,59.5 C 502.38,59.1979 505.38,60.5312 507.5,63.5C 504.314,62.4031 501.314,61.0697 498.5,59.5 Z"/></g>
<g><path style="opacity:1" fill="#f88d4f" d="M 69.5,60.5 C 71.0739,62.1016 71.7406,64.1016 71.5,66.5C 69.9261,64.8984 69.2594,62.8984 69.5,60.5 Z"/></g>
<g><path style="opacity:0.055" fill="#d0cdd1" d="M 179.5,24.5 C 180.497,43.326 180.83,62.326 180.5,81.5C 180.586,82.4959 180.252,83.3292 179.5,84C 174.051,84.8962 168.718,84.5628 163.5,83C 155.519,71.5295 148.186,59.6961 141.5,47.5C 141.217,46.7109 140.717,46.0442 140,45.5C 139.831,57.6737 139.331,69.6737 138.5,81.5C 137.854,68.788 138.52,56.4547 140.5,44.5C 148.993,56.1477 156.993,68.1477 164.5,80.5C 164.611,81.1174 164.944,81.6174 165.5,82C 170.155,82.4992 174.821,82.6658 179.5,82.5C 179.5,63.1667 179.5,43.8333 179.5,24.5 Z"/></g>
<g><path style="opacity:0.299" fill="#c8c5ca" d="M 490.5,68.5 C 489.213,72.0649 489.213,75.7316 490.5,79.5C 489.206,77.9522 488.539,75.9522 488.5,73.5C 488.833,71.5 489.167,69.5 489.5,67.5C 490.107,67.6236 490.44,67.9569 490.5,68.5 Z"/></g>
<g><path style="opacity:0.925" fill="#69656c" d="M 341.5,68.5 C 343.5,69.8333 345.167,71.5 346.5,73.5C 343.833,72.8333 342.167,71.1667 341.5,68.5 Z"/></g>
<g><path style="opacity:0.047" fill="#e2e0e3" d="M 356.5,46.5 C 358.142,47.803 359.809,49.1363 361.5,50.5C 362.811,55.0611 363.478,59.7277 363.5,64.5C 360.863,73.1247 355.196,76.1247 346.5,73.5C 345.167,71.5 343.5,69.8333 341.5,68.5C 341.5,67.1667 341.5,65.8333 341.5,64.5C 341.335,61.1501 341.502,57.8168 342,54.5C 342.2,52.6803 343.034,51.347 344.5,50.5C 341.72,56.9388 341.886,63.2721 345,69.5C 355.377,74.8605 360.877,71.6939 361.5,60C 361.203,48.6895 355.87,45.1895 345.5,49.5C 345.953,48.5416 346.619,47.7083 347.5,47C 350.482,46.502 353.482,46.3354 356.5,46.5 Z"/></g>
<g><path style="opacity:0.036" fill="#e0dee1" d="M 437.5,34.5 C 458.559,34.6944 467.226,44.861 463.5,65C 453.151,65.1677 442.817,65.6677 432.5,66.5C 436.106,72.1568 441.106,73.6568 447.5,71C 452.606,66.0123 458.439,65.179 465,68.5C 464.702,73.8374 462.202,78.0041 457.5,81C 440.758,89.2742 427.258,85.7742 417,70.5C 412.045,51.383 418.879,39.383 437.5,34.5 Z M 437.5,47.5 C 443.718,45.9768 448.052,48.1435 450.5,54C 444.509,54.4995 438.509,54.6662 432.5,54.5C 433.002,51.3315 434.669,48.9981 437.5,47.5 Z"/></g>
<g><path style="opacity:1" fill="#332939" d="M 434.5,38.5 C 439.305,37.5128 444.305,37.1795 449.5,37.5C 452.597,39.081 455.597,40.9143 458.5,43C 459.252,43.6708 459.586,44.5041 459.5,45.5C 460.508,47.5439 461.508,49.5439 462.5,51.5C 463.821,55.2326 463.821,59.0659 462.5,63C 451.839,63.4998 441.172,63.6665 430.5,63.5C 433.082,74.0379 439.416,77.0379 449.5,72.5C 453.274,69.738 457.607,68.738 462.5,69.5C 461.382,74.6263 458.382,78.293 453.5,80.5C 445.488,81.6813 437.488,81.6813 429.5,80.5C 425.522,78.5216 422.522,75.5216 420.5,71.5C 421.735,71.7214 422.735,72.3881 423.5,73.5C 424.716,72.9984 425.883,72.6651 427,72.5C 427.49,73.7932 427.657,75.1266 427.5,76.5C 428.5,76.5 429.5,76.5 430.5,76.5C 430.5,77.5 430.5,78.5 430.5,79.5C 431.552,79.6495 432.552,79.4828 433.5,79C 433.167,78.6667 432.833,78.3333 432.5,78C 433.624,77.7508 434.624,77.2508 435.5,76.5C 434.24,75.6184 433.074,74.6184 432,73.5C 431.902,71.3807 431.069,69.714 429.5,68.5C 428.526,66.2573 428.192,63.924 428.5,61.5C 434.176,61.6661 439.843,61.4994 445.5,61C 448.371,60.8823 451.038,60.2156 453.5,59C 445.672,57.5343 437.672,57.0343 429.5,57.5C 429.336,54.8127 429.503,52.146 430,49.5C 430.71,48.0267 431.876,47.3601 433.5,47.5C 430.924,49.8875 429.924,52.8875 430.5,56.5C 437.5,56.5 444.5,56.5 451.5,56.5C 452.491,51.8273 450.824,48.494 446.5,46.5C 443.572,45.5159 440.572,45.1826 437.5,45.5C 440.358,44.834 443.358,44.1674 446.5,43.5C 445.624,42.7492 444.624,42.2492 443.5,42C 445.78,41.7674 447.78,40.934 449.5,39.5C 444.544,38.5059 439.544,38.1725 434.5,38.5 Z M 437.5,47.5 C 434.669,48.9981 433.002,51.3315 432.5,54.5C 438.509,54.6662 444.509,54.4995 450.5,54C 448.052,48.1435 443.718,45.9768 437.5,47.5 Z"/></g>
<g><path style="opacity:0.661" fill="#7b767e" d="M 462.5,69.5 C 457.607,68.738 453.274,69.738 449.5,72.5C 449.511,70.9826 450.177,69.8159 451.5,69C 455.358,68.1901 459.024,68.3567 462.5,69.5 Z"/></g>
<g><path style="opacity:1" fill="#4e4653" d="M 421.5,46.5 C 419.35,54.7547 419.017,63.088 420.5,71.5C 418.067,67.8076 417.067,63.6409 417.5,59C 416.748,54.0286 418.081,49.8619 421.5,46.5 Z"/></g>
<g><path style="opacity:0.101" fill="#cdcbcf" d="M 437.5,45.5 C 440.572,45.1826 443.572,45.5159 446.5,46.5C 450.824,48.494 452.491,51.8273 451.5,56.5C 444.5,56.5 437.5,56.5 430.5,56.5C 429.924,52.8875 430.924,49.8875 433.5,47.5C 434.605,46.3995 435.938,45.7329 437.5,45.5 Z M 437.5,47.5 C 434.669,48.9981 433.002,51.3315 432.5,54.5C 438.509,54.6662 444.509,54.4995 450.5,54C 448.052,48.1435 443.718,45.9768 437.5,47.5 Z"/></g>
<g><path style="opacity:0.773" fill="#78727d" d="M 459.5,45.5 C 461.975,46.6874 462.975,48.6874 462.5,51.5C 461.508,49.5439 460.508,47.5439 459.5,45.5 Z"/></g>
<g><path style="opacity:0.91" fill="#67626e" d="M 427.5,40.5 C 425.833,42.8333 423.833,44.8333 421.5,46.5C 422.5,43.5 424.5,41.5 427.5,40.5 Z"/></g>
<g><path style="opacity:1" fill="#291e30" d="M 434.5,38.5 C 439.544,38.1725 444.544,38.5059 449.5,39.5C 447.78,40.934 445.78,41.7674 443.5,42C 444.624,42.2492 445.624,42.7492 446.5,43.5C 443.358,44.1674 440.358,44.834 437.5,45.5C 435.938,45.7329 434.605,46.3995 433.5,47.5C 431.876,47.3601 430.71,48.0267 430,49.5C 429.503,52.146 429.336,54.8127 429.5,57.5C 437.672,57.0343 445.672,57.5343 453.5,59C 451.038,60.2156 448.371,60.8823 445.5,61C 439.843,61.4994 434.176,61.6661 428.5,61.5C 428.192,63.924 428.526,66.2573 429.5,68.5C 431.069,69.714 431.902,71.3807 432,73.5C 433.074,74.6184 434.24,75.6184 435.5,76.5C 434.624,77.2508 433.624,77.7508 432.5,78C 432.833,78.3333 433.167,78.6667 433.5,79C 432.552,79.4828 431.552,79.6495 430.5,79.5C 430.5,78.5 430.5,77.5 430.5,76.5C 429.5,76.5 428.5,76.5 427.5,76.5C 427.657,75.1266 427.49,73.7932 427,72.5C 425.883,72.6651 424.716,72.9984 423.5,73.5C 422.735,72.3881 421.735,71.7214 420.5,71.5C 419.017,63.088 419.35,54.7547 421.5,46.5C 423.833,44.8333 425.833,42.8333 427.5,40.5C 429.833,39.8333 432.167,39.1667 434.5,38.5 Z"/></g>
<g><path style="opacity:0.697" fill="#837e87" d="M 449.5,37.5 C 444.305,37.1795 439.305,37.5128 434.5,38.5C 432.167,39.1667 429.833,39.8333 427.5,40.5C 428.749,38.8639 430.416,37.6972 432.5,37C 438.349,36.1816 444.015,36.3483 449.5,37.5 Z"/></g>
<g><path style="opacity:1" fill="#868089" d="M 524.5,70.5 C 524.539,73.089 523.539,75.089 521.5,76.5C 521.455,73.9228 522.455,71.9228 524.5,70.5 Z"/></g>
<g><path style="opacity:1" fill="#4f4855" d="M 334.5,76.5 C 336.199,76.3398 337.866,76.5065 339.5,77C 339.167,77.3333 338.833,77.6667 338.5,78C 343.458,81.7136 349.125,83.2136 355.5,82.5C 347.386,84.5749 340.386,82.5749 334.5,76.5 Z"/></g>
<g><path style="opacity:0.11" fill="#dcdadd" d="M 202.5,36.5 C 222.823,31.4636 234.156,39.4636 236.5,60.5C 236.363,62.1073 235.696,63.4406 234.5,64.5C 223.864,65.1451 213.197,65.8118 202.5,66.5C 208.648,74.308 214.982,74.4746 221.5,67C 224.572,67.0629 227.572,66.8963 230.5,66.5C 234.558,66.7121 236.058,68.7121 235,72.5C 232.201,78.8253 227.368,82.6587 220.5,84C 200.329,88.0984 188.662,80.0984 185.5,60C 185.609,51.9985 188.609,45.3318 194.5,40C 196.818,38.0073 199.484,36.8406 202.5,36.5 Z M 204.5,49.5 C 207.901,47.6156 211.567,47.1156 215.5,48C 218.033,49.0333 219.699,50.8666 220.5,53.5C 214.5,54.8333 208.5,54.8333 202.5,53.5C 203.63,52.3777 204.297,51.0443 204.5,49.5 Z"/></g>
<g><path style="opacity:1" fill="#3e3644" d="M 221.5,69.5 C 225.167,69.5 228.833,69.5 232.5,69.5C 232.5,70.5 232.5,71.5 232.5,72.5C 231.833,73.1667 231.167,73.8333 230.5,74.5C 227.6,79.2983 223.266,82.1316 217.5,83C 213.129,83.8275 208.795,83.6609 204.5,82.5C 203.398,81.8243 202.398,81.1577 201.5,80.5C 206.14,81.3973 210.806,81.5639 215.5,81C 215.888,79.1918 215.888,77.5252 215.5,76C 212.964,75.8138 210.631,75.3138 208.5,74.5C 214.086,75.6272 218.419,73.9605 221.5,69.5 Z"/></g>
<g><path style="opacity:1" fill="#291d30" d="M 230.5,74.5 C 229.127,74.3433 227.793,74.51 226.5,75C 223.72,76.1341 222.053,77.6341 221.5,79.5C 219.603,79.2718 218.27,78.2718 217.5,76.5C 220.177,71.1047 224.51,69.1047 230.5,70.5C 230.5,71.8333 230.5,73.1667 230.5,74.5 Z"/></g>
<g><path style="opacity:0.678" fill="#7e7a82" d="M 221.5,69.5 C 225.298,68.5166 229.298,68.1832 233.5,68.5C 233.768,70.099 233.434,71.4324 232.5,72.5C 232.5,71.5 232.5,70.5 232.5,69.5C 228.833,69.5 225.167,69.5 221.5,69.5 Z"/></g>
<g><path style="opacity:1" fill="#514955" d="M 189.5,49.5 C 189.391,56.1961 189.724,62.8627 190.5,69.5C 188.218,66.476 187.218,62.976 187.5,59C 187.421,55.5489 188.087,52.3823 189.5,49.5 Z"/></g>
<g><path style="opacity:1" fill="#2f2436" d="M 216.5,37.5 C 230.149,40.8348 235.816,49.5015 233.5,63.5C 222.5,63.5 211.5,63.5 200.5,63.5C 200.984,68.8166 203.65,72.4833 208.5,74.5C 210.631,75.3138 212.964,75.8138 215.5,76C 215.888,77.5252 215.888,79.1918 215.5,81C 210.806,81.5639 206.14,81.3973 201.5,80.5C 195.577,79.244 191.91,75.5773 190.5,69.5C 189.724,62.8627 189.391,56.1961 189.5,49.5C 191.631,44.2735 195.297,40.6068 200.5,38.5C 205.797,37.7255 211.13,37.3921 216.5,37.5 Z M 204.5,49.5 C 204.297,51.0443 203.63,52.3777 202.5,53.5C 208.5,54.8333 214.5,54.8333 220.5,53.5C 219.699,50.8666 218.033,49.0333 215.5,48C 211.567,47.1156 207.901,47.6156 204.5,49.5 Z"/></g>
<g><path style="opacity:0.553" fill="#938e97" d="M 206.5,46.5 C 205.833,47.5 205.167,48.5 204.5,49.5C 202.025,50.6874 201.025,52.6874 201.5,55.5C 207.833,55.5 214.167,55.5 220.5,55.5C 214.021,56.4907 207.354,56.824 200.5,56.5C 199.63,51.3827 201.63,48.0493 206.5,46.5 Z"/></g>
<g><path style="opacity:0.105" fill="#e0dee1" d="M 220.5,55.5 C 214.167,55.5 207.833,55.5 201.5,55.5C 201.025,52.6874 202.025,50.6874 204.5,49.5C 205.167,48.5 205.833,47.5 206.5,46.5C 211.629,44.7935 216.296,45.7935 220.5,49.5C 221.793,51.6365 221.793,53.6365 220.5,55.5 Z M 204.5,49.5 C 204.297,51.0443 203.63,52.3777 202.5,53.5C 208.5,54.8333 214.5,54.8333 220.5,53.5C 219.699,50.8666 218.033,49.0333 215.5,48C 211.567,47.1156 207.901,47.6156 204.5,49.5 Z"/></g>
<g><path style="opacity:0.753" fill="#7f7982" d="M 202.5,36.5 C 207.363,36.1805 212.03,36.5139 216.5,37.5C 211.13,37.3921 205.797,37.7255 200.5,38.5C 201.167,37.8333 201.833,37.1667 202.5,36.5 Z"/></g>
<g><path style="opacity:0.975" fill="#57535c" d="M 259.5,73.5 C 263.5,73.5 267.5,73.5 271.5,73.5C 271.777,76.4475 271.444,79.2809 270.5,82C 265.167,82.6667 259.833,82.6667 254.5,82C 253.584,81.7216 252.918,81.2216 252.5,80.5C 258.167,80.5 263.833,80.5 269.5,80.5C 269.5,78.5 269.5,76.5 269.5,74.5C 265.958,74.8128 262.625,74.4794 259.5,73.5 Z"/></g>
<g><path style="opacity:0.129" fill="#dedcdf" d="M 291.5,36.5 C 291.167,37.1667 290.833,37.8333 290.5,38.5C 284.833,40.8333 280.833,44.8333 278.5,50.5C 277.009,53.1864 276.343,56.1864 276.5,59.5C 276.505,61.6965 276.838,63.6965 277.5,65.5C 278.491,72.4871 282.158,77.4871 288.5,80.5C 292.021,82.9144 296.021,83.9144 300.5,83.5C 302.833,83.3333 305.167,83.1667 307.5,83C 308.056,82.6174 308.389,82.1174 308.5,81.5C 313.449,81.223 317.116,78.8896 319.5,74.5C 321.982,72.4973 322.982,69.8306 322.5,66.5C 318.818,66.3347 315.152,66.5014 311.5,67C 309.639,70.025 307.306,72.525 304.5,74.5C 298.473,75.8983 294.14,73.8983 291.5,68.5C 290.519,63.8708 290.352,59.2041 291,54.5C 291.223,52.1192 292.39,50.4525 294.5,49.5C 290.177,56.898 290.511,64.0647 295.5,71C 302.657,74.252 307.657,72.252 310.5,65C 325.828,62.9283 328.494,67.9283 318.5,80C 306.235,87.6376 294.235,87.3043 282.5,79C 273.041,67.3292 272.541,55.1626 281,42.5C 283.911,39.4119 287.411,37.4119 291.5,36.5 Z"/></g>
<g><path style="opacity:1" fill="#4d4651" d="M 319.5,74.5 C 319.5,72.5 319.5,70.5 319.5,68.5C 316.813,68.3359 314.146,68.5026 311.5,69C 310.181,72.155 307.848,73.9884 304.5,74.5C 307.306,72.525 309.639,70.025 311.5,67C 315.152,66.5014 318.818,66.3347 322.5,66.5C 322.982,69.8306 321.982,72.4973 319.5,74.5 Z"/></g>
<g><path style="opacity:0.596" fill="#908e94" d="M 278.5,50.5 C 277.746,55.4635 277.413,60.4635 277.5,65.5C 276.838,63.6965 276.505,61.6965 276.5,59.5C 276.343,56.1864 277.009,53.1864 278.5,50.5 Z"/></g>
<g><path style="opacity:0.071" fill="#bcb9be" d="M 516.5,79.5 C 509.305,82.9215 501.972,83.2549 494.5,80.5C 501.876,80.7257 509.209,80.3924 516.5,79.5 Z"/></g>
<g><path style="opacity:0.992" fill="#534a56" d="M 288.5,80.5 C 295.131,81.331 301.798,81.6643 308.5,81.5C 308.389,82.1174 308.056,82.6174 307.5,83C 305.167,83.1667 302.833,83.3333 300.5,83.5C 296.021,83.9144 292.021,82.9144 288.5,80.5 Z"/></g>
<g><path style="opacity:0.985" fill="#524a56" d="M 429.5,80.5 C 437.488,81.6813 445.488,81.6813 453.5,80.5C 449.44,81.6813 445.273,82.6813 441,83.5C 436.775,83.5846 432.941,82.5846 429.5,80.5 Z"/></g>
<g><path style="opacity:1" fill="#f66818" d="M 104.5,9.5 C 104.815,34.878 104.481,60.2113 103.5,85.5C 103.672,86.4916 103.338,87.1583 102.5,87.5C 101.167,88.8333 99.8333,90.1667 98.5,91.5C 98.6997,88.2351 97.1997,86.2351 94,85.5C 91.031,86.2939 88.031,86.9605 85,87.5C 80.986,85.3858 76.8193,83.8858 72.5,83C 76.1816,84.3198 77.6816,86.8198 77,90.5C 71.0205,89.8513 71.0205,90.518 77,92.5C 78.4728,92.0969 79.8061,91.4303 81,90.5C 82.3333,91.1667 83.6667,91.8333 85,92.5C 85.6172,93.4491 85.4506,94.2825 84.5,95C 87.4816,95.498 90.4816,95.6646 93.5,95.5C 87.6812,96.6525 81.6812,96.8192 75.5,96C 70.2772,92.0459 67.2772,86.8792 66.5,80.5C 68.3638,81.9784 69.6971,83.9784 70.5,86.5C 70.8333,86 71.1667,85.5 71.5,85C 70.3132,82.2764 69.6465,79.4431 69.5,76.5C 70.9778,76.762 72.3112,76.4287 73.5,75.5C 72.3584,72.6008 71.6917,69.6008 71.5,66.5C 74.6955,70.2241 76.8621,74.5574 78,79.5C 79.0491,81.6175 80.5491,83.2842 82.5,84.5C 84.6282,85.6291 86.9615,85.7958 89.5,85C 90.756,84.5831 91.4226,83.7498 91.5,82.5C 92.4959,82.5858 93.3292,82.2524 94,81.5C 94.5,61.1694 94.6666,40.8361 94.5,20.5C 95.4972,40.9933 95.8305,61.6599 95.5,82.5C 98.4905,82.3297 100.491,83.663 101.5,86.5C 102.308,84.5767 102.808,82.5767 103,80.5C 103.833,59.4921 103.666,38.4921 102.5,17.5C 101.579,19.756 99.9124,20.756 97.5,20.5C 97.7135,18.8561 97.3802,17.3561 96.5,16C 98.8098,15.5034 101.143,15.3367 103.5,15.5C 103.5,13.8333 103.5,12.1667 103.5,10.5C 93.1667,10.5 82.8333,10.5 72.5,10.5C 72.2114,13.6492 72.7114,16.6492 74,19.5C 75.1139,15.5443 75.9473,15.5443 76.5,19.5C 82.0262,19.1786 87.3595,19.5119 92.5,20.5C 87.8215,20.3342 83.1548,20.5008 78.5,21C 77.7476,21.6708 77.4142,22.5041 77.5,23.5C 75.2471,27.1719 73.9138,31.1719 73.5,35.5C 72.5,35.5 71.5,35.5 70.5,35.5C 69.288,31.5864 67.9547,27.7531 66.5,24C 68.5115,19.3069 70.1781,14.4736 71.5,9.5C 82.5,9.5 93.5,9.5 104.5,9.5 Z"/></g>
<g><path style="opacity:0.604" fill="#f4b288" d="M 92.5,20.5 C 92.5,20.8333 92.5,21.1667 92.5,21.5C 88.1539,21.3343 83.8206,21.501 79.5,22C 78.9558,22.7172 78.2891,23.2172 77.5,23.5C 77.4142,22.5041 77.7476,21.6708 78.5,21C 83.1548,20.5008 87.8215,20.3342 92.5,20.5 Z"/></g>
<g><path style="opacity:1" fill="#fc5f03" d="M 94.5,20.5 C 93.8333,20.5 93.1667,20.5 92.5,20.5C 87.3595,19.5119 82.0262,19.1786 76.5,19.5C 75.9473,15.5443 75.1139,15.5443 74,19.5C 72.7114,16.6492 72.2114,13.6492 72.5,10.5C 82.8333,10.5 93.1667,10.5 103.5,10.5C 103.5,12.1667 103.5,13.8333 103.5,15.5C 101.143,15.3367 98.8098,15.5034 96.5,16C 97.3802,17.3561 97.7135,18.8561 97.5,20.5C 99.9124,20.756 101.579,19.756 102.5,17.5C 103.666,38.4921 103.833,59.4921 103,80.5C 102.808,82.5767 102.308,84.5767 101.5,86.5C 100.491,83.663 98.4905,82.3297 95.5,82.5C 95.8305,61.6599 95.4972,40.9933 94.5,20.5 Z"/></g>
<g><path style="opacity:0.475" fill="#f6ae7e" d="M 91.5,82.5 C 91.4226,83.7498 90.756,84.5831 89.5,85C 86.9615,85.7958 84.6282,85.6291 82.5,84.5C 85.7543,84.7931 88.7543,84.1264 91.5,82.5 Z"/></g>
<g><path style="opacity:1" fill="#fb5e04" d="M 98.5,91.5 C 96.8333,92.8333 95.1667,94.1667 93.5,95.5C 90.4816,95.6646 87.4816,95.498 84.5,95C 85.4506,94.2825 85.6172,93.4491 85,92.5C 83.6667,91.8333 82.3333,91.1667 81,90.5C 79.8061,91.4303 78.4728,92.0969 77,92.5C 71.0205,90.518 71.0205,89.8513 77,90.5C 77.6816,86.8198 76.1816,84.3198 72.5,83C 76.8193,83.8858 80.986,85.3858 85,87.5C 88.031,86.9605 91.031,86.2939 94,85.5C 97.1997,86.2351 98.6997,88.2351 98.5,91.5 Z"/></g>
<g><path style="opacity:0.29" fill="#fab895" d="M 102.5,87.5 C 102.107,89.2838 101.441,90.9505 100.5,92.5C 98.3549,93.9885 96.0215,94.9885 93.5,95.5C 95.1667,94.1667 96.8333,92.8333 98.5,91.5C 99.8333,90.1667 101.167,88.8333 102.5,87.5 Z"/></g>
<g><path style="opacity:0.317" fill="#fee6d6" d="M 26.5,6.5 C 25.8333,7.16667 25.1667,7.83333 24.5,8.5C 21.5726,9.75731 19.2393,11.7573 17.5,14.5C 14.9877,16.4784 13.4877,19.1451 13,22.5C 12.3333,46.5 12.3333,70.5 13,94.5C 23.0895,95.652 33.2562,95.8186 43.5,95C 45.2024,92.7646 46.2024,90.2646 46.5,87.5C 46.3284,86.5084 46.6618,85.8417 47.5,85.5C 49.2394,83.6251 50.2394,81.2918 50.5,78.5C 49.8266,76.149 49.1599,73.8157 48.5,71.5C 47.962,69.8828 47.6287,68.2161 47.5,66.5C 49.5353,70.0805 51.2019,73.9139 52.5,78C 50.5111,84.476 47.8444,90.6427 44.5,96.5C 33.8802,97.6431 23.2135,97.8098 12.5,97C 12,96.5 11.5,96 11,95.5C 10.4434,71.5773 10.4434,47.5773 11,23.5C 12.5433,14.4595 17.7099,8.79282 26.5,6.5 Z"/></g>
<g><path style="opacity:0.441" fill="#fcb791" d="M 39.5,80.5 C 39.0472,81.4584 38.3805,82.2917 37.5,83C 33.3112,83.8119 29.3112,83.6453 25.5,82.5C 30.4302,82.966 35.0968,82.2994 39.5,80.5 Z"/></g>
<g><path style="opacity:1" fill="#f76d20" d="M 48.5,71.5 C 49.1599,73.8157 49.8266,76.149 50.5,78.5C 50.2394,81.2918 49.2394,83.6251 47.5,85.5C 47.821,84.1825 48.1543,82.8492 48.5,81.5C 47.1436,79.7305 45.6436,78.0638 44,76.5C 42.2495,77.2225 40.7495,78.2225 39.5,79.5C 39.2594,77.1016 39.9261,75.1016 41.5,73.5C 42.832,71.8679 44.1653,70.2012 45.5,68.5C 46.2876,69.7701 47.2876,70.7701 48.5,71.5 Z"/></g>
<g><path style="opacity:0.631" fill="#f6ab81" d="M 47.5,66.5 C 47.6287,68.2161 47.962,69.8828 48.5,71.5C 47.2876,70.7701 46.2876,69.7701 45.5,68.5C 44.1653,70.2012 42.832,71.8679 41.5,73.5C 41.4378,69.2687 43.4378,66.9354 47.5,66.5 Z"/></g>
<g><path style="opacity:0.878" fill="#918b94" d="M 401.5,124.5 C 397.167,124.5 392.833,124.5 388.5,124.5C 392.833,121.833 397.167,121.833 401.5,124.5 Z"/></g>
<g><path style="opacity:0.867" fill="#908a94" d="M 715.5,124.5 C 711.167,124.5 706.833,124.5 702.5,124.5C 706.833,121.833 711.167,121.833 715.5,124.5 Z"/></g>
<g><path style="opacity:1" fill="#312637" d="M 388.5,124.5 C 392.833,124.5 397.167,124.5 401.5,124.5C 412.14,129.58 414.973,137.58 410,148.5C 407.823,151.523 404.989,153.523 401.5,154.5C 396.463,154.587 391.463,154.254 386.5,153.5C 385.738,151.738 384.404,150.738 382.5,150.5C 376.926,144.581 376.093,137.914 380,130.5C 382.177,127.477 385.011,125.477 388.5,124.5 Z"/></g>
<g><path style="opacity:1" fill="#2f2435" d="M 702.5,124.5 C 706.833,124.5 711.167,124.5 715.5,124.5C 724.427,128.024 727.76,134.357 725.5,143.5C 723.455,144.923 722.455,146.923 722.5,149.5C 721.008,152.323 718.674,153.99 715.5,154.5C 710.463,154.587 705.463,154.254 700.5,153.5C 699.738,151.738 698.404,150.738 696.5,150.5C 696.446,148.368 695.446,147.035 693.5,146.5C 690.833,141.833 690.833,137.167 693.5,132.5C 695.262,131.738 696.262,130.404 696.5,128.5C 697.802,126.178 699.802,124.845 702.5,124.5 Z"/></g>
<g><path style="opacity:0.067" fill="#ebeaec" d="M 428.5,125.5 C 437.652,124.506 446.985,124.173 456.5,124.5C 456.5,159.167 456.5,193.833 456.5,228.5C 455.502,194.337 455.168,160.004 455.5,125.5C 446.5,125.5 437.5,125.5 428.5,125.5 Z"/></g>
<g><path style="opacity:0.565" fill="#8a858d" d="M 542.5,125.5 C 542.833,125.5 543.167,125.5 543.5,125.5C 543.5,125.833 543.5,126.167 543.5,126.5C 543.833,141.182 543.499,155.848 542.5,170.5C 541.893,170.376 541.56,170.043 541.5,169.5C 542.496,155.01 542.829,140.343 542.5,125.5 Z"/></g>
<g><path style="opacity:0.991" fill="#352a3a" d="M 543.5,126.5 C 543.5,126.167 543.5,125.833 543.5,125.5C 552.167,125.5 560.833,125.5 569.5,125.5C 569.5,168.167 569.5,210.833 569.5,253.5C 569.167,253.5 568.833,253.5 568.5,253.5C 568.5,211.167 568.5,168.833 568.5,126.5C 560.167,126.5 551.833,126.5 543.5,126.5 Z"/></g>
<g><path style="opacity:0.147" fill="#dfdde0" d="M 542.5,125.5 C 551.652,124.506 560.985,124.173 570.5,124.5C 570.832,168.003 570.499,211.337 569.5,254.5C 569.5,254.167 569.5,253.833 569.5,253.5C 569.5,210.833 569.5,168.167 569.5,125.5C 560.833,125.5 552.167,125.5 543.5,125.5C 543.167,125.5 542.833,125.5 542.5,125.5 Z"/></g>
<g><path style="opacity:1" fill="#2c2132" d="M 428.5,125.5 C 437.5,125.5 446.5,125.5 455.5,125.5C 455.168,160.004 455.502,194.337 456.5,228.5C 457.167,229.5 457.833,230.5 458.5,231.5C 458.611,232.117 458.944,232.617 459.5,233C 462.167,233.667 464.833,233.667 467.5,233C 468.056,232.617 468.389,232.117 468.5,231.5C 469.983,234.628 471.649,237.628 473.5,240.5C 473.5,240.833 473.5,241.167 473.5,241.5C 473.12,243.698 473.787,245.365 475.5,246.5C 475.5,246.833 475.5,247.167 475.5,247.5C 475.567,248.959 475.234,250.292 474.5,251.5C 465.47,256.698 455.803,257.865 445.5,255C 443.273,254.059 441.273,252.892 439.5,251.5C 439.027,250.094 438.027,249.427 436.5,249.5C 432.485,246.148 429.985,241.815 429,236.5C 428.5,199.502 428.333,162.502 428.5,125.5 Z"/></g>
<g><path style="opacity:1" fill="#2b2031" d="M 543.5,126.5 C 551.833,126.5 560.167,126.5 568.5,126.5C 568.5,168.833 568.5,211.167 568.5,253.5C 560.167,253.5 551.833,253.5 543.5,253.5C 543.5,252.167 543.5,250.833 543.5,249.5C 543.663,247.143 543.497,244.81 543,242.5C 542.283,243.044 541.783,243.711 541.5,244.5C 532.44,254.936 521.106,258.603 507.5,255.5C 505.485,254.076 503.152,253.41 500.5,253.5C 498.847,253.34 497.514,252.674 496.5,251.5C 496.027,250.094 495.027,249.427 493.5,249.5C 492.738,247.738 491.404,246.738 489.5,246.5C 483.82,241.476 480.487,235.143 479.5,227.5C 478.737,219.858 478.403,212.191 478.5,204.5C 478.727,197.819 480.727,191.819 484.5,186.5C 485.906,186.027 486.573,185.027 486.5,183.5C 488.262,182.738 489.262,181.404 489.5,179.5C 489.833,178.5 490.5,177.833 491.5,177.5C 494.427,176.243 496.761,174.243 498.5,171.5C 500.027,171.573 501.027,170.906 501.5,169.5C 502.514,168.326 503.847,167.66 505.5,167.5C 509.162,167.277 512.495,166.277 515.5,164.5C 522.591,162.981 529.591,163.481 536.5,166C 538.584,166.697 540.251,167.864 541.5,169.5C 541.56,170.043 541.893,170.376 542.5,170.5C 543.499,155.848 543.833,141.182 543.5,126.5 Z M 519.5,188.5 C 524.547,188.337 529.547,188.671 534.5,189.5C 535.833,191.5 537.5,193.167 539.5,194.5C 539.66,196.153 540.326,197.486 541.5,198.5C 542.833,204.167 542.833,209.833 541.5,215.5C 540.463,216.93 539.796,218.597 539.5,220.5C 538.662,220.842 538.328,221.508 538.5,222.5C 537.094,222.973 536.427,223.973 536.5,225.5C 535.5,225.833 534.833,226.5 534.5,227.5C 532.973,227.427 531.973,228.094 531.5,229.5C 530.508,229.328 529.842,229.662 529.5,230.5C 526.99,230.927 524.657,231.593 522.5,232.5C 518.42,232.158 514.754,230.825 511.5,228.5C 510.833,227.167 509.833,226.167 508.5,225.5C 504.29,212.938 506.29,201.604 514.5,191.5C 516.368,190.737 518.035,189.737 519.5,188.5 Z"/></g>
<g><path style="opacity:0.953" fill="#87808a" d="M 696.5,128.5 C 696.262,130.404 695.262,131.738 693.5,132.5C 693.738,130.596 694.738,129.262 696.5,128.5 Z"/></g>
<g><path style="opacity:1" fill="#817a85" d="M 725.5,143.5 C 725.539,146.089 724.539,148.089 722.5,149.5C 722.455,146.923 723.455,144.923 725.5,143.5 Z"/></g>
<g><path style="opacity:0.98" fill="#88828c" d="M 693.5,146.5 C 695.446,147.035 696.446,148.368 696.5,150.5C 695.026,149.564 694.026,148.23 693.5,146.5 Z"/></g>
<g><path style="opacity:0.839" fill="#97929a" d="M 382.5,150.5 C 384.404,150.738 385.738,151.738 386.5,153.5C 384.596,153.262 383.262,152.262 382.5,150.5 Z"/></g>
<g><path style="opacity:0.812" fill="#9a959e" d="M 696.5,150.5 C 698.404,150.738 699.738,151.738 700.5,153.5C 698.596,153.262 697.262,152.262 696.5,150.5 Z"/></g>
<g><path style="opacity:0.42" fill="#a39ea5" d="M 386.5,153.5 C 391.463,154.254 396.463,154.587 401.5,154.5C 399.696,155.162 397.696,155.495 395.5,155.5C 392.186,155.657 389.186,154.991 386.5,153.5 Z"/></g>
<g><path style="opacity:0.416" fill="#a39ea5" d="M 700.5,153.5 C 705.463,154.254 710.463,154.587 715.5,154.5C 713.696,155.162 711.696,155.495 709.5,155.5C 706.186,155.657 703.186,154.991 700.5,153.5 Z"/></g>
<g><path style="opacity:1" fill="#2d2233" d="M 81.5,176.5 C 81.427,178.027 82.0937,179.027 83.5,179.5C 83.427,181.027 84.0937,182.027 85.5,182.5C 87.9051,186.756 89.4051,191.423 90,196.5C 90.8213,203.679 90.6546,210.679 89.5,217.5C 70.8333,217.5 52.1667,217.5 33.5,217.5C 33.2322,219.099 33.5655,220.432 34.5,221.5C 35.3382,221.842 35.6716,222.508 35.5,223.5C 36.1667,226.167 37.8333,227.833 40.5,228.5C 46.7483,231.727 53.4149,233.06 60.5,232.5C 63.0101,232.946 65.0101,232.28 66.5,230.5C 67.5137,229.326 68.847,228.66 70.5,228.5C 72.0269,228.573 73.0269,227.906 73.5,226.5C 73.5,225.833 73.8333,225.5 74.5,225.5C 75.1667,225.833 75.8333,226.167 76.5,226.5C 79.5,228.833 82.1667,231.5 84.5,234.5C 85.7536,237.093 87.4202,239.427 89.5,241.5C 84.276,248.616 77.276,252.95 68.5,254.5C 60.5246,255.276 52.5246,255.61 44.5,255.5C 44.1667,255.5 43.8333,255.5 43.5,255.5C 40.4954,253.723 37.1621,252.723 33.5,252.5C 30.7594,252.293 28.4261,251.293 26.5,249.5C 26.0269,248.094 25.0269,247.427 23.5,247.5C 23.0269,246.094 22.0269,245.427 20.5,245.5C 15.1259,241.752 11.4593,236.752 9.5,230.5C 9.07191,227.215 8.07191,224.215 6.5,221.5C 5.02867,213.007 5.362,204.674 7.5,196.5C 9.07394,194.898 9.74061,192.898 9.5,190.5C 9.32842,189.508 9.66175,188.842 10.5,188.5C 11.9063,188.027 12.573,187.027 12.5,185.5C 13.9063,185.027 14.573,184.027 14.5,182.5C 16.2624,181.738 17.2624,180.404 17.5,178.5C 17.8333,177.5 18.5,176.833 19.5,176.5C 21.7488,175.92 23.4154,174.587 24.5,172.5C 26.0269,172.573 27.0269,171.906 27.5,170.5C 29.0269,170.573 30.0269,169.906 30.5,168.5C 32.1016,166.926 34.1016,166.259 36.5,166.5C 39.1522,166.59 41.4855,165.924 43.5,164.5C 54.7921,162.39 65.4588,164.224 75.5,170C 77.7059,172.037 79.7059,174.203 81.5,176.5 Z M 63.5,188.5 C 63.9321,189.71 64.5987,190.71 65.5,191.5C 65.6741,193.861 66.0074,196.194 66.5,198.5C 55.6536,198.828 44.9869,198.494 34.5,197.5C 40.7078,183.877 50.3744,180.877 63.5,188.5 Z"/></g>
<g><path style="opacity:1" fill="#2a1f2f" d="M 243.5,170.5 C 244.167,171.833 245.167,172.833 246.5,173.5C 246.707,177.174 248.374,179.84 251.5,181.5C 251.259,183.898 251.926,185.898 253.5,187.5C 254.434,188.568 254.768,189.901 254.5,191.5C 254.5,212.167 254.5,232.833 254.5,253.5C 245.833,253.5 237.167,253.5 228.5,253.5C 228.5,238.5 228.5,223.5 228.5,208.5C 228.062,203.33 226.895,198.33 225,193.5C 219.922,188.795 214.422,188.295 208.5,192C 204.429,195.882 201.429,200.382 199.5,205.5C 198.076,207.515 197.41,209.848 197.5,212.5C 196.667,219.994 195.667,227.328 194.5,234.5C 193.51,240.645 193.177,246.978 193.5,253.5C 184.833,253.5 176.167,253.5 167.5,253.5C 167.667,235.83 167.5,218.164 167,200.5C 166.768,199.263 166.268,198.263 165.5,197.5C 164.099,194.04 161.766,191.374 158.5,189.5C 157.551,188.848 156.385,188.514 155,188.5C 152.779,188.393 150.946,189.06 149.5,190.5C 144.397,194.039 140.731,198.705 138.5,204.5C 137.076,206.515 136.41,208.848 136.5,211.5C 136.5,211.833 136.5,212.167 136.5,212.5C 133.38,222.117 132.047,232.117 132.5,242.5C 131.518,245.962 131.185,249.629 131.5,253.5C 123.167,253.5 114.833,253.5 106.5,253.5C 106.5,224.5 106.5,195.5 106.5,166.5C 114.833,166.5 123.167,166.5 131.5,166.5C 131.5,171.167 131.5,175.833 131.5,180.5C 131.833,181.833 132.167,181.833 132.5,180.5C 133.167,180.5 133.5,180.167 133.5,179.5C 133.5,178.833 133.833,178.5 134.5,178.5C 136.262,177.738 137.262,176.404 137.5,174.5C 139.749,173.92 141.415,172.587 142.5,170.5C 144.027,170.573 145.027,169.906 145.5,168.5C 146.496,168.414 147.329,168.748 148,169.5C 154.049,165.13 160.883,163.464 168.5,164.5C 171.152,164.41 173.485,165.076 175.5,166.5C 176.344,168.759 178.011,169.759 180.5,169.5C 181.167,169.833 181.833,170.167 182.5,170.5C 182.738,172.404 183.738,173.738 185.5,174.5C 185.427,176.027 186.094,177.027 187.5,177.5C 187.427,179.027 188.094,180.027 189.5,180.5C 190.246,184.31 191.246,184.31 192.5,180.5C 194.587,179.415 195.92,177.749 196.5,175.5C 198.716,174.797 200.549,173.464 202,171.5C 203.308,172.151 204.141,171.485 204.5,169.5C 206.181,167.992 208.181,166.992 210.5,166.5C 213.152,166.59 215.485,165.924 217.5,164.5C 224.259,163.007 230.926,163.507 237.5,166C 240.106,166.792 242.106,168.292 243.5,170.5 Z"/></g>
<g><path style="opacity:1" fill="#2c2132" d="M 334.5,170.5 C 334.833,171.5 335.5,172.167 336.5,172.5C 337.5,172.833 338.167,173.5 338.5,174.5C 338.56,175.043 338.893,175.376 339.5,175.5C 340.386,174.675 340.719,173.675 340.5,172.5C 340.216,170.585 340.549,168.919 341.5,167.5C 347.744,166.542 354.077,166.209 360.5,166.5C 360.5,195.5 360.5,224.5 360.5,253.5C 351.435,254.136 342.769,253.47 334.5,251.5C 334.5,250.5 334.5,249.5 334.5,248.5C 335.629,246.372 335.796,244.039 335,241.5C 334.283,242.044 333.783,242.711 333.5,243.5C 332.797,245.716 331.464,247.549 329.5,249C 320.386,255.721 310.386,257.888 299.5,255.5C 297.485,254.076 295.152,253.41 292.5,253.5C 292.167,253.5 291.833,253.5 291.5,253.5C 291.027,252.094 290.027,251.427 288.5,251.5C 287.508,251.672 286.842,251.338 286.5,250.5C 285.738,248.738 284.404,247.738 282.5,247.5C 280.833,246.5 279.5,245.167 278.5,243.5C 278.446,241.368 277.446,240.035 275.5,239.5C 273.707,237.574 272.707,235.241 272.5,232.5C 272.59,229.848 271.924,227.515 270.5,225.5C 269.167,217.5 269.167,209.5 270.5,201.5C 272.277,198.495 273.277,195.162 273.5,191.5C 273.66,189.847 274.326,188.514 275.5,187.5C 276.906,187.027 277.573,186.027 277.5,184.5C 279.262,183.738 280.262,182.404 280.5,180.5C 283.167,178.5 285.5,176.167 287.5,173.5C 289.027,173.573 290.027,172.906 290.5,171.5C 292.336,169.412 294.669,168.079 297.5,167.5C 301.427,167.074 305.093,166.074 308.5,164.5C 314.046,163.259 319.713,163.426 325.5,165C 329.181,165.872 332.181,167.706 334.5,170.5 Z M 329.5,223.5 C 327.167,225.167 325.167,227.167 323.5,229.5C 306.78,235.458 298.113,229.458 297.5,211.5C 298.402,208.003 299.069,204.337 299.5,200.5C 305.705,188.58 315.039,185.413 327.5,191C 332.252,195.249 334.252,200.583 333.5,207C 333.7,212.894 332.367,218.394 329.5,223.5 Z"/></g>
<g><path style="opacity:1" fill="#2d2233" d="M 668.5,178.5 C 668.427,180.027 669.094,181.027 670.5,181.5C 672.588,183.336 673.921,185.669 674.5,188.5C 674.926,192.427 675.926,196.093 677.5,199.5C 678.802,204.933 678.802,210.266 677.5,215.5C 676.343,218.273 675.676,221.273 675.5,224.5C 670.33,240.335 659.664,250.335 643.5,254.5C 636.191,255.248 628.858,255.582 621.5,255.5C 620.833,255.5 620.167,255.5 619.5,255.5C 616.495,253.723 613.162,252.723 609.5,252.5C 607.847,252.34 606.514,251.674 605.5,250.5C 605.027,249.094 604.027,248.427 602.5,248.5C 602.027,247.094 601.027,246.427 599.5,246.5C 592.214,240.536 587.88,232.87 586.5,223.5C 586.5,216.167 586.5,208.833 586.5,201.5C 586.366,199.708 586.699,198.042 587.5,196.5C 589.213,195.365 589.88,193.698 589.5,191.5C 589.992,189.181 590.992,187.181 592.5,185.5C 594.262,184.738 595.262,183.404 595.5,181.5C 598.5,179.167 601.167,176.5 603.5,173.5C 605.027,173.573 606.027,172.906 606.5,171.5C 608.027,171.573 609.027,170.906 609.5,169.5C 610.78,168.069 612.447,167.402 614.5,167.5C 618.162,167.277 621.495,166.277 624.5,164.5C 638.119,162.057 650.786,164.557 662.5,172C 664.706,174.037 666.706,176.203 668.5,178.5 Z M 642.5,190.5 C 643.167,191.833 644.167,192.833 645.5,193.5C 646.263,195.368 647.263,197.035 648.5,198.5C 649.275,203.797 649.608,209.13 649.5,214.5C 648.542,216.302 647.875,218.302 647.5,220.5C 646.89,221.391 646.557,222.391 646.5,223.5C 645.094,223.973 644.427,224.973 644.5,226.5C 637.991,232.293 630.657,233.627 622.5,230.5C 621.71,229.599 620.71,228.932 619.5,228.5C 619.167,227.5 618.5,226.833 617.5,226.5C 617.573,224.973 616.906,223.973 615.5,223.5C 614.617,218.868 613.95,214.202 613.5,209.5C 614.344,206.655 615.01,203.655 615.5,200.5C 621.094,188.553 630.094,185.219 642.5,190.5 Z"/></g>
<g><path style="opacity:1" fill="#2d2333" d="M 819.5,176.5 C 819.738,178.404 820.738,179.738 822.5,180.5C 822.427,182.027 823.094,183.027 824.5,183.5C 824.427,185.027 825.094,186.027 826.5,186.5C 827.404,187.209 827.737,188.209 827.5,189.5C 827.41,192.152 828.076,194.485 829.5,196.5C 832.05,208.339 830.883,220.006 826,231.5C 824.723,233.747 823.223,235.747 821.5,237.5C 820.094,237.973 819.427,238.973 819.5,240.5C 814.161,246.839 807.494,251.172 799.5,253.5C 796.273,253.676 793.273,254.343 790.5,255.5C 784.599,256.806 778.599,256.806 772.5,255.5C 769.495,253.723 766.162,252.723 762.5,252.5C 759.669,251.921 757.336,250.588 755.5,248.5C 755.027,247.094 754.027,246.427 752.5,246.5C 749.097,244.1 746.43,241.1 744.5,237.5C 744.715,235.821 744.048,234.821 742.5,234.5C 741.27,232.703 740.604,230.703 740.5,228.5C 739.07,220.572 738.403,212.572 738.5,204.5C 738.325,202.379 738.659,200.379 739.5,198.5C 741.074,196.898 741.741,194.898 741.5,192.5C 741.66,190.847 742.326,189.514 743.5,188.5C 744.906,188.027 745.573,187.027 745.5,185.5C 745.328,184.508 745.662,183.842 746.5,183.5C 748.262,182.738 749.262,181.404 749.5,179.5C 749.833,178.5 750.5,177.833 751.5,177.5C 754.089,176.581 756.089,174.914 757.5,172.5C 759.027,172.573 760.027,171.906 760.5,170.5C 762.181,168.992 764.181,167.992 766.5,167.5C 768.898,167.741 770.898,167.074 772.5,165.5C 786.363,161.948 799.696,163.448 812.5,170C 815.288,171.719 817.621,173.885 819.5,176.5 Z M 797.5,192.5 C 798.026,194.23 799.026,195.564 800.5,196.5C 800.263,197.791 800.596,198.791 801.5,199.5C 802.768,205.828 802.768,212.161 801.5,218.5C 799.992,220.181 798.992,222.181 798.5,224.5C 797.094,224.973 796.427,225.973 796.5,227.5C 795.833,227.5 795.5,227.833 795.5,228.5C 793.973,228.427 792.973,229.094 792.5,230.5C 786.032,232.969 779.699,232.635 773.5,229.5C 772.5,227.833 771.167,226.5 769.5,225.5C 769.672,224.508 769.338,223.842 768.5,223.5C 768.125,221.302 767.458,219.302 766.5,217.5C 765.342,207.957 767.676,199.457 773.5,192C 781.649,187.181 789.649,187.348 797.5,192.5 Z"/></g>
<g><path style="opacity:0.933" fill="#7f7883" d="M 43.5,164.5 C 41.4855,165.924 39.1522,166.59 36.5,166.5C 38.5145,165.076 40.8478,164.41 43.5,164.5 Z"/></g>
<g><path style="opacity:0.847" fill="#969099" d="M 217.5,164.5 C 215.485,165.924 213.152,166.59 210.5,166.5C 212.515,165.076 214.848,164.41 217.5,164.5 Z"/></g>
<g><path style="opacity:0.91" fill="#7a727d" d="M 308.5,164.5 C 305.093,166.074 301.427,167.074 297.5,167.5C 300.799,165.517 304.466,164.517 308.5,164.5 Z"/></g>
<g><path style="opacity:0.882" fill="#87808a" d="M 624.5,164.5 C 621.495,166.277 618.162,167.277 614.5,167.5C 617.505,165.723 620.838,164.723 624.5,164.5 Z"/></g>
<g><path style="opacity:0.882" fill="#958f98" d="M 515.5,164.5 C 512.495,166.277 509.162,167.277 505.5,167.5C 508.505,165.723 511.838,164.723 515.5,164.5 Z"/></g>
<g><path style="opacity:0.812" fill="#9f9aa2" d="M 772.5,165.5 C 770.898,167.074 768.898,167.741 766.5,167.5C 768.214,166.262 770.214,165.595 772.5,165.5 Z"/></g>
<g><path style="opacity:0.752" fill="#8a848d" d="M 131.5,165.5 C 131.5,165.833 131.5,166.167 131.5,166.5C 123.167,166.5 114.833,166.5 106.5,166.5C 106.5,195.5 106.5,224.5 106.5,253.5C 114.833,253.5 123.167,253.5 131.5,253.5C 131.185,249.629 131.518,245.962 132.5,242.5C 132.5,245.833 132.5,249.167 132.5,252.5C 123.56,254.472 114.227,255.139 104.5,254.5C 104.5,224.833 104.5,195.167 104.5,165.5C 113.5,165.5 122.5,165.5 131.5,165.5 Z"/></g>
<g><path style="opacity:0.743" fill="#6e6672" d="M 334.5,251.5 C 342.769,253.47 351.435,254.136 360.5,253.5C 360.5,224.5 360.5,195.5 360.5,166.5C 354.077,166.209 347.744,166.542 341.5,167.5C 347.75,165.541 354.416,164.874 361.5,165.5C 361.5,195.167 361.5,224.833 361.5,254.5C 352.167,254.5 342.833,254.5 333.5,254.5C 333.263,253.209 333.596,252.209 334.5,251.5 Z"/></g>
<g><path style="opacity:0.719" fill="#97919a" d="M 382.5,165.5 C 382.5,165.833 382.5,166.167 382.5,166.5C 382.5,195.5 382.5,224.5 382.5,253.5C 390.833,253.5 399.167,253.5 407.5,253.5C 408.498,224.338 408.831,195.005 408.5,165.5C 409.498,194.995 409.831,224.662 409.5,254.5C 400.167,254.5 390.833,254.5 381.5,254.5C 381.169,224.662 381.502,194.995 382.5,165.5 Z"/></g>
<g><path style="opacity:1" fill="#271c2d" d="M 382.5,166.5 C 390.833,166.5 399.167,166.5 407.5,166.5C 407.5,195.5 407.5,224.5 407.5,253.5C 399.167,253.5 390.833,253.5 382.5,253.5C 382.5,224.5 382.5,195.5 382.5,166.5 Z"/></g>
<g><path style="opacity:0.903" fill="#443b49" d="M 382.5,166.5 C 382.5,166.167 382.5,165.833 382.5,165.5C 391.167,165.5 399.833,165.5 408.5,165.5C 408.831,195.005 408.498,224.338 407.5,253.5C 407.5,224.5 407.5,195.5 407.5,166.5C 399.167,166.5 390.833,166.5 382.5,166.5 Z"/></g>
<g><path style="opacity:1" fill="#2b2031" d="M 721.5,259.5 C 717.626,277.131 706.626,286.964 688.5,289C 680.927,289.903 673.594,289.403 666.5,287.5C 664.257,286.868 662.591,285.534 661.5,283.5C 662.006,277.464 662.839,271.464 664,265.5C 665.459,263.19 667.292,262.857 669.5,264.5C 672.526,266.019 675.859,266.685 679.5,266.5C 681.833,266.333 684.167,266.167 686.5,266C 687.056,265.617 687.389,265.117 687.5,264.5C 687.842,263.662 688.508,263.328 689.5,263.5C 691.833,263.167 693.167,261.833 693.5,259.5C 693.263,258.209 693.596,257.209 694.5,256.5C 695.268,255.737 695.768,254.737 696,253.5C 696.5,224.502 696.667,195.502 696.5,166.5C 704.833,166.5 713.167,166.5 721.5,166.5C 721.5,197.5 721.5,228.5 721.5,259.5 Z"/></g>
<g><path style="opacity:0.786" fill="#5f5663" d="M 721.5,259.5 C 721.5,228.5 721.5,197.5 721.5,166.5C 713.167,166.5 704.833,166.5 696.5,166.5C 696.667,195.502 696.5,224.502 696,253.5C 695.768,254.737 695.268,255.737 694.5,256.5C 695.444,226.183 695.778,195.849 695.5,165.5C 704.5,165.5 713.5,165.5 722.5,165.5C 722.832,197.004 722.498,228.338 721.5,259.5 Z"/></g>
<g><path style="opacity:1" fill="#847d88" d="M 168.5,164.5 C 160.883,163.464 154.049,165.13 148,169.5C 147.329,168.748 146.496,168.414 145.5,168.5C 152.64,163.826 160.307,162.493 168.5,164.5 Z"/></g>
<g><path style="opacity:1" fill="#7b737f" d="M 175.5,166.5 C 177.674,166.75 179.341,167.75 180.5,169.5C 178.011,169.759 176.344,168.759 175.5,166.5 Z"/></g>
<g><path style="opacity:0.757" fill="#99949c" d="M 30.5,168.5 C 30.0269,169.906 29.0269,170.573 27.5,170.5C 27.9731,169.094 28.9731,168.427 30.5,168.5 Z"/></g>
<g><path style="opacity:0.839" fill="#86808a" d="M 145.5,168.5 C 145.027,169.906 144.027,170.573 142.5,170.5C 142.973,169.094 143.973,168.427 145.5,168.5 Z"/></g>
<g><path style="opacity:0.008" fill="#c3c0c5" d="M 243.5,170.5 C 245.5,170.5 246.5,171.5 246.5,173.5C 245.167,172.833 244.167,171.833 243.5,170.5 Z"/></g>
<g><path style="opacity:0.012" fill="#c5c2c6" d="M 334.5,170.5 C 335.833,170.5 336.5,171.167 336.5,172.5C 335.5,172.167 334.833,171.5 334.5,170.5 Z"/></g>
<g><path style="opacity:0.725" fill="#9d98a0" d="M 501.5,169.5 C 501.027,170.906 500.027,171.573 498.5,171.5C 498.973,170.094 499.973,169.427 501.5,169.5 Z"/></g>
<g><path style="opacity:0.827" fill="#8c8690" d="M 609.5,169.5 C 609.027,170.906 608.027,171.573 606.5,171.5C 606.973,170.094 607.973,169.427 609.5,169.5 Z"/></g>
<g><path style="opacity:0.839" fill="#847d88" d="M 27.5,170.5 C 27.0269,171.906 26.0269,172.573 24.5,172.5C 24.9731,171.094 25.9731,170.427 27.5,170.5 Z"/></g>
<g><path style="opacity:0.686" fill="#afaab1" d="M 182.5,170.5 C 184.262,171.262 185.262,172.596 185.5,174.5C 183.738,173.738 182.738,172.404 182.5,170.5 Z"/></g>
<g><path style="opacity:0.737" fill="#99939b" d="M 760.5,170.5 C 760.027,171.906 759.027,172.573 757.5,172.5C 757.973,171.094 758.973,170.427 760.5,170.5 Z"/></g>
<g><path style="opacity:0.275" fill="#c2bfc4" d="M 131.5,165.5 C 132.167,170.167 132.833,174.833 133.5,179.5C 133.5,180.167 133.167,180.5 132.5,180.5C 132.167,180.5 131.833,180.5 131.5,180.5C 131.5,175.833 131.5,171.167 131.5,166.5C 131.5,166.167 131.5,165.833 131.5,165.5 Z"/></g>
<g><path style="opacity:0.863" fill="#7f7882" d="M 290.5,171.5 C 290.027,172.906 289.027,173.573 287.5,173.5C 287.973,172.094 288.973,171.427 290.5,171.5 Z"/></g>
<g><path style="opacity:0.82" fill="#88818b" d="M 606.5,171.5 C 606.027,172.906 605.027,173.573 603.5,173.5C 603.973,172.094 604.973,171.427 606.5,171.5 Z"/></g>
<g><path style="opacity:0.878" fill="#807984" d="M 142.5,170.5 C 141.415,172.587 139.749,173.92 137.5,174.5C 138.585,172.413 140.251,171.08 142.5,170.5 Z"/></g>
<g><path style="opacity:0.851" fill="#7c7580" d="M 204.5,169.5 C 204.141,171.485 203.308,172.151 202,171.5C 200.549,173.464 198.716,174.797 196.5,175.5C 198.313,172.353 200.98,170.353 204.5,169.5 Z"/></g>
<g><path style="opacity:0.537" fill="#a9a5ac" d="M 287.5,173.5 C 285.5,176.167 283.167,178.5 280.5,180.5C 281.833,177.167 284.167,174.833 287.5,173.5 Z"/></g>
<g><path style="opacity:0.302" fill="#cdcbcf" d="M 340.5,172.5 C 340.719,173.675 340.386,174.675 339.5,175.5C 338.893,175.376 338.56,175.043 338.5,174.5C 339.167,173.833 339.833,173.167 340.5,172.5 Z"/></g>
<g><path style="opacity:0.941" fill="#736b77" d="M 498.5,171.5 C 496.761,174.243 494.427,176.243 491.5,177.5C 493.239,174.757 495.573,172.757 498.5,171.5 Z"/></g>
<g><path style="opacity:0.89" fill="#7e7781" d="M 24.5,172.5 C 23.4154,174.587 21.7488,175.92 19.5,176.5C 20.5846,174.413 22.2512,173.08 24.5,172.5 Z"/></g>
<g><path style="opacity:0.851" fill="#948e97" d="M 137.5,174.5 C 137.262,176.404 136.262,177.738 134.5,178.5C 134.738,176.596 135.738,175.262 137.5,174.5 Z"/></g>
<g><path style="opacity:0.89" fill="#79727d" d="M 757.5,172.5 C 756.089,174.914 754.089,176.581 751.5,177.5C 752.911,175.086 754.911,173.419 757.5,172.5 Z"/></g>
<g><path style="opacity:0.616" fill="#8a848e" d="M 185.5,174.5 C 186.906,174.973 187.573,175.973 187.5,177.5C 186.094,177.027 185.427,176.027 185.5,174.5 Z"/></g>
<g><path style="opacity:0.882" fill="#8a848d" d="M 196.5,175.5 C 195.92,177.749 194.587,179.415 192.5,180.5C 193.08,178.251 194.413,176.585 196.5,175.5 Z"/></g>
<g><path style="opacity:0.808" fill="#9c979f" d="M 819.5,176.5 C 821.262,177.262 822.262,178.596 822.5,180.5C 820.738,179.738 819.738,178.404 819.5,176.5 Z"/></g>
<g><path style="opacity:0.451" fill="#aca8ae" d="M 81.5,176.5 C 82.9063,176.973 83.573,177.973 83.5,179.5C 82.0937,179.027 81.427,178.027 81.5,176.5 Z"/></g>
<g><path style="opacity:0.718" fill="#9c969e" d="M 603.5,173.5 C 601.167,176.5 598.5,179.167 595.5,181.5C 597.167,177.833 599.833,175.167 603.5,173.5 Z"/></g>
<g><path style="opacity:0.784" fill="#9d989f" d="M 17.5,178.5 C 17.2624,180.404 16.2624,181.738 14.5,182.5C 14.7376,180.596 15.7376,179.262 17.5,178.5 Z"/></g>
<g><path style="opacity:0.322" fill="#afabb1" d="M 187.5,177.5 C 188.906,177.973 189.573,178.973 189.5,180.5C 188.094,180.027 187.427,179.027 187.5,177.5 Z"/></g>
<g><path style="opacity:1" fill="#5f5563" d="M 246.5,173.5 C 249.164,175.484 250.831,178.151 251.5,181.5C 248.374,179.84 246.707,177.174 246.5,173.5 Z"/></g>
<g><path style="opacity:0.804" fill="#9c979f" d="M 489.5,179.5 C 489.262,181.404 488.262,182.738 486.5,183.5C 486.738,181.596 487.738,180.262 489.5,179.5 Z"/></g>
<g><path style="opacity:0.557" fill="#9a959d" d="M 668.5,178.5 C 669.906,178.973 670.573,179.973 670.5,181.5C 669.094,181.027 668.427,180.027 668.5,178.5 Z"/></g>
<g><path style="opacity:0.776" fill="#a09ba3" d="M 749.5,179.5 C 749.262,181.404 748.262,182.738 746.5,183.5C 746.738,181.596 747.738,180.262 749.5,179.5 Z"/></g>
<g><path style="opacity:0.278" fill="#bebac0" d="M 83.5,179.5 C 84.9063,179.973 85.573,180.973 85.5,182.5C 84.0937,182.027 83.427,181.027 83.5,179.5 Z"/></g>
<g><path style="opacity:0.929" fill="#8a838c" d="M 280.5,180.5 C 280.262,182.404 279.262,183.738 277.5,184.5C 277.738,182.596 278.738,181.262 280.5,180.5 Z"/></g>
<g><path style="opacity:0.549" fill="#9b959e" d="M 189.5,180.5 C 190.5,181.833 191.5,181.833 192.5,180.5C 191.246,184.31 190.246,184.31 189.5,180.5 Z"/></g>
<g><path style="opacity:0.549" fill="#948d97" d="M 822.5,180.5 C 823.906,180.973 824.573,181.973 824.5,183.5C 823.094,183.027 822.427,182.027 822.5,180.5 Z"/></g>
<g><path style="opacity:0.698" fill="#908a93" d="M 595.5,181.5 C 595.262,183.404 594.262,184.738 592.5,185.5C 592.738,183.596 593.738,182.262 595.5,181.5 Z"/></g>
<g><path style="opacity:0.49" fill="#a19ca3" d="M 14.5,182.5 C 14.573,184.027 13.9063,185.027 12.5,185.5C 12.427,183.973 13.0937,182.973 14.5,182.5 Z"/></g>
<g><path style="opacity:0.333" fill="#bab6bb" d="M 486.5,183.5 C 486.573,185.027 485.906,186.027 484.5,186.5C 484.427,184.973 485.094,183.973 486.5,183.5 Z"/></g>
<g><path style="opacity:0.271" fill="#bdbabf" d="M 824.5,183.5 C 825.906,183.973 826.573,184.973 826.5,186.5C 825.094,186.027 824.427,185.027 824.5,183.5 Z"/></g>
<g><path style="opacity:0.624" fill="#97919a" d="M 251.5,181.5 C 253.074,183.102 253.741,185.102 253.5,187.5C 251.926,185.898 251.259,183.898 251.5,181.5 Z"/></g>
<g><path style="opacity:0.337" fill="#bab6bb" d="M 277.5,184.5 C 277.573,186.027 276.906,187.027 275.5,187.5C 275.427,185.973 276.094,184.973 277.5,184.5 Z"/></g>
<g><path style="opacity:0.243" fill="#bfbbc1" d="M 12.5,185.5 C 12.573,187.027 11.9063,188.027 10.5,188.5C 10.427,186.973 11.0937,185.973 12.5,185.5 Z"/></g>
<g><path style="opacity:0.482" fill="#9a949d" d="M 745.5,185.5 C 745.573,187.027 744.906,188.027 743.5,188.5C 743.427,186.973 744.094,185.973 745.5,185.5 Z"/></g>
<g><path style="opacity:0.961" fill="#827a84" d="M 63.5,188.5 C 65.0481,188.821 65.7148,189.821 65.5,191.5C 64.5987,190.71 63.9321,189.71 63.5,188.5 Z"/></g>
<g><path style="opacity:0.459" fill="#969099" d="M 158.5,189.5 C 155.455,189.508 152.455,189.841 149.5,190.5C 150.946,189.06 152.779,188.393 155,188.5C 156.385,188.514 157.551,188.848 158.5,189.5 Z"/></g>
<g><path style="opacity:1" fill="#736b77" d="M 519.5,188.5 C 518.035,189.737 516.368,190.737 514.5,191.5C 514.5,190.5 514.5,189.5 514.5,188.5C 516.167,188.5 517.833,188.5 519.5,188.5 Z"/></g>
<g><path style="opacity:0.698" fill="#b1adb3" d="M 534.5,189.5 C 537.167,190.167 538.833,191.833 539.5,194.5C 537.5,193.167 535.833,191.5 534.5,189.5 Z"/></g>
<g><path style="opacity:0.596" fill="#b7b3b9" d="M 642.5,190.5 C 644.5,190.5 645.5,191.5 645.5,193.5C 644.167,192.833 643.167,191.833 642.5,190.5 Z"/></g>
<g><path style="opacity:0.898" fill="#948e97" d="M 674.5,188.5 C 676.483,191.799 677.483,195.466 677.5,199.5C 675.926,196.093 674.926,192.427 674.5,188.5 Z"/></g>
<g><path style="opacity:0.914" fill="#97919a" d="M 797.5,192.5 C 799.446,193.035 800.446,194.368 800.5,196.5C 799.026,195.564 798.026,194.23 797.5,192.5 Z"/></g>
<g><path style="opacity:0.757" fill="#aba6ad" d="M 9.5,190.5 C 9.74061,192.898 9.07394,194.898 7.5,196.5C 7.59495,194.214 8.26162,192.214 9.5,190.5 Z"/></g>
<g><path style="opacity:0.918" fill="#9d98a0" d="M 645.5,193.5 C 647.741,194.3 648.741,195.966 648.5,198.5C 647.263,197.035 646.263,195.368 645.5,193.5 Z"/></g>
<g><path style="opacity:0.843" fill="#9b969e" d="M 273.5,191.5 C 273.277,195.162 272.277,198.495 270.5,201.5C 270.723,197.838 271.723,194.505 273.5,191.5 Z"/></g>
<g><path style="opacity:0.976" fill="#827c86" d="M 589.5,191.5 C 589.88,193.698 589.213,195.365 587.5,196.5C 587.402,194.447 588.069,192.78 589.5,191.5 Z"/></g>
<g><path style="opacity:0.753" fill="#aba6ad" d="M 741.5,192.5 C 741.741,194.898 741.074,196.898 739.5,198.5C 739.595,196.214 740.262,194.214 741.5,192.5 Z"/></g>
<g><path style="opacity:0.655" fill="#928d95" d="M 827.5,189.5 C 828.924,191.515 829.59,193.848 829.5,196.5C 828.076,194.485 827.41,192.152 827.5,189.5 Z"/></g>
<g><path style="opacity:0.149" fill="#dcdadd" d="M 34.5,197.5 C 44.9869,198.494 55.6536,198.828 66.5,198.5C 55.6596,199.824 44.6596,199.824 33.5,198.5C 33.6236,197.893 33.9569,197.56 34.5,197.5 Z"/></g>
<g><path style="opacity:0.749" fill="#a39ea6" d="M 299.5,200.5 C 299.069,204.337 298.402,208.003 297.5,211.5C 297.335,208.482 297.502,205.482 298,202.5C 298.278,201.584 298.778,200.918 299.5,200.5 Z"/></g>
<g><path style="opacity:0.586" fill="#8e8891" d="M 165.5,197.5 C 166.268,198.263 166.768,199.263 167,200.5C 167.5,218.164 167.667,235.83 167.5,253.5C 176.167,253.5 184.833,253.5 193.5,253.5C 193.177,246.978 193.51,240.645 194.5,234.5C 194.5,241.167 194.5,247.833 194.5,254.5C 185.167,254.5 175.833,254.5 166.5,254.5C 166.769,235.477 166.435,216.477 165.5,197.5 Z"/></g>
<g><path style="opacity:0.549" fill="#9a959d" d="M 541.5,198.5 C 544.103,204.151 544.103,209.818 541.5,215.5C 542.833,209.833 542.833,204.167 541.5,198.5 Z"/></g>
<g><path style="opacity:0.008" fill="#c9c6ca" d="M 138.5,204.5 C 138.59,207.152 137.924,209.485 136.5,211.5C 136.41,208.848 137.076,206.515 138.5,204.5 Z"/></g>
<g><path style="opacity:0.008" fill="#c9c6ca" d="M 199.5,205.5 C 199.59,208.152 198.924,210.485 197.5,212.5C 197.41,209.848 198.076,207.515 199.5,205.5 Z"/></g>
<g><path style="opacity:0.024" fill="#cbc9cd" d="M 615.5,200.5 C 615.01,203.655 614.344,206.655 613.5,209.5C 613.336,206.813 613.503,204.146 614,201.5C 614.383,200.944 614.883,200.611 615.5,200.5 Z"/></g>
<g><path style="opacity:0.2" fill="#bfbcc1" d="M 648.5,198.5 C 650.006,201.356 650.672,204.523 650.5,208C 650.496,210.361 650.163,212.527 649.5,214.5C 649.608,209.13 649.275,203.797 648.5,198.5 Z"/></g>
<g><path style="opacity:0.612" fill="#959098" d="M 801.5,199.5 C 802.991,202.186 803.657,205.186 803.5,208.5C 803.602,212.117 802.935,215.45 801.5,218.5C 802.768,212.161 802.768,205.828 801.5,199.5 Z"/></g>
<g><path style="opacity:0.845" fill="#908a93" d="M 586.5,201.5 C 586.5,208.833 586.5,216.167 586.5,223.5C 583.963,216.176 583.963,208.842 586.5,201.5 Z"/></g>
<g><path style="opacity:0.384" fill="#b8b5ba" d="M 478.5,204.5 C 478.403,212.191 478.737,219.858 479.5,227.5C 478.021,223.091 477.354,218.424 477.5,213.5C 477.502,210.314 477.835,207.314 478.5,204.5 Z"/></g>
<g><path style="opacity:0.218" fill="#d0cdd1" d="M 89.5,217.5 C 71.3409,218.497 53.0076,218.83 34.5,218.5C 34.5,219.5 34.5,220.5 34.5,221.5C 33.5655,220.432 33.2322,219.099 33.5,217.5C 52.1667,217.5 70.8333,217.5 89.5,217.5 Z"/></g>
<g><path style="opacity:0.302" fill="#c3c0c5" d="M 136.5,212.5 C 134.384,225.899 133.05,239.232 132.5,252.5C 132.5,249.167 132.5,245.833 132.5,242.5C 132.047,232.117 133.38,222.117 136.5,212.5 Z"/></g>
<g><path style="opacity:0.835" fill="#9c969f" d="M 541.5,215.5 C 541.88,217.698 541.213,219.365 539.5,220.5C 539.796,218.597 540.463,216.93 541.5,215.5 Z"/></g>
<g><path style="opacity:0.741" fill="#afabb1" d="M 649.5,214.5 C 649.946,217.01 649.28,219.01 647.5,220.5C 647.875,218.302 648.542,216.302 649.5,214.5 Z"/></g>
<g><path style="opacity:0.165" fill="#c4c1c5" d="M 677.5,215.5 C 677.785,218.829 677.118,221.829 675.5,224.5C 675.676,221.273 676.343,218.273 677.5,215.5 Z"/></g>
<g><path style="opacity:0.89" fill="#958f98" d="M 766.5,217.5 C 767.458,219.302 768.125,221.302 768.5,223.5C 766.72,222.01 766.054,220.01 766.5,217.5 Z"/></g>
<g><path style="opacity:0.714" fill="#a19ca3" d="M 538.5,222.5 C 538.573,224.027 537.906,225.027 536.5,225.5C 536.427,223.973 537.094,222.973 538.5,222.5 Z"/></g>
<g><path style="opacity:0.012" fill="#c5c2c6" d="M 6.5,221.5 C 8.07191,224.215 9.07191,227.215 9.5,230.5C 7.52751,227.916 6.52751,224.916 6.5,221.5 Z"/></g>
<g><path style="opacity:0.784" fill="#aaa5ac" d="M 35.5,223.5 C 37.5,224.833 39.1667,226.5 40.5,228.5C 37.8333,227.833 36.1667,226.167 35.5,223.5 Z"/></g>
<g><path style="opacity:0.004" fill="#dbdadc" d="M 74.5,225.5 C 75.6226,224.243 76.2893,224.576 76.5,226.5C 75.8333,226.167 75.1667,225.833 74.5,225.5 Z"/></g>
<g><path style="opacity:0.369" fill="#b6b2b8" d="M 615.5,223.5 C 616.906,223.973 617.573,224.973 617.5,226.5C 616.094,226.027 615.427,225.027 615.5,223.5 Z"/></g>
<g><path style="opacity:0.384" fill="#b2aeb4" d="M 646.5,223.5 C 646.573,225.027 645.906,226.027 644.5,226.5C 644.427,224.973 645.094,223.973 646.5,223.5 Z"/></g>
<g><path style="opacity:0.557" fill="#b6b2b8" d="M 738.5,204.5 C 738.403,212.572 739.07,220.572 740.5,228.5C 739.037,225.797 738.204,222.797 738,219.5C 737.184,214.316 737.35,209.316 738.5,204.5 Z"/></g>
<g><path style="opacity:0.667" fill="#a5a1a8" d="M 798.5,224.5 C 798.573,226.027 797.906,227.027 796.5,227.5C 796.427,225.973 797.094,224.973 798.5,224.5 Z"/></g>
<g><path style="opacity:0.675" fill="#aeaab1" d="M 769.5,225.5 C 771.167,226.5 772.5,227.833 773.5,229.5C 771.167,229.167 769.833,227.833 769.5,225.5 Z"/></g>
<g><path style="opacity:0.671" fill="#9f9aa2" d="M 73.5,226.5 C 73.0269,227.906 72.0269,228.573 70.5,228.5C 70.9731,227.094 71.9731,226.427 73.5,226.5 Z"/></g>
<g><path style="opacity:0.753" fill="#8c868f" d="M 329.5,223.5 C 328.5,226.5 326.5,228.5 323.5,229.5C 325.167,227.167 327.167,225.167 329.5,223.5 Z"/></g>
<g><path style="opacity:0.698" fill="#958f99" d="M 508.5,225.5 C 509.833,226.167 510.833,227.167 511.5,228.5C 509.5,228.5 508.5,227.5 508.5,225.5 Z"/></g>
<g><path style="opacity:0.008" fill="#c9c6cb" d="M 270.5,225.5 C 271.924,227.515 272.59,229.848 272.5,232.5C 271.076,230.485 270.41,228.152 270.5,225.5 Z"/></g>
<g><path style="opacity:0.639" fill="#a29ea5" d="M 534.5,227.5 C 534.027,228.906 533.027,229.573 531.5,229.5C 531.973,228.094 532.973,227.427 534.5,227.5 Z"/></g>
<g><path style="opacity:0.941" fill="#8b848e" d="M 619.5,228.5 C 620.71,228.932 621.71,229.599 622.5,230.5C 620.821,230.715 619.821,230.048 619.5,228.5 Z"/></g>
<g><path style="opacity:0.792" fill="#89828c" d="M 795.5,228.5 C 795.027,229.906 794.027,230.573 792.5,230.5C 792.973,229.094 793.973,228.427 795.5,228.5 Z"/></g>
<g><path style="opacity:0.505" fill="#9d979f" d="M 254.5,191.5 C 255.497,212.327 255.831,233.327 255.5,254.5C 246.167,254.5 236.833,254.5 227.5,254.5C 227.17,238.991 227.504,223.658 228.5,208.5C 228.5,223.5 228.5,238.5 228.5,253.5C 237.167,253.5 245.833,253.5 254.5,253.5C 254.5,232.833 254.5,212.167 254.5,191.5 Z"/></g>
<g><path style="opacity:0.949" fill="#8a848e" d="M 66.5,230.5 C 65.0101,232.28 63.0101,232.946 60.5,232.5C 62.3024,231.542 64.3024,230.875 66.5,230.5 Z"/></g>
<g><path style="opacity:0.871" fill="#9f9aa2" d="M 529.5,230.5 C 529.389,231.117 529.056,231.617 528.5,232C 526.527,232.495 524.527,232.662 522.5,232.5C 524.657,231.593 526.99,230.927 529.5,230.5 Z"/></g>
<g><path style="opacity:0.384" fill="#928c94" d="M 458.5,231.5 C 461.833,232.833 465.167,232.833 468.5,231.5C 468.389,232.117 468.056,232.617 467.5,233C 464.833,233.667 462.167,233.667 459.5,233C 458.944,232.617 458.611,232.117 458.5,231.5 Z"/></g>
<g><path style="opacity:0.82" fill="#a39ea6" d="M 468.5,231.5 C 469.077,230.227 469.743,230.227 470.5,231.5C 471.705,234.45 472.705,237.45 473.5,240.5C 471.649,237.628 469.983,234.628 468.5,231.5 Z"/></g>
<g><path style="opacity:0.949" fill="#88818c" d="M 742.5,234.5 C 744.048,234.821 744.715,235.821 744.5,237.5C 743.599,236.71 742.932,235.71 742.5,234.5 Z"/></g>
<g><path style="opacity:0.773" fill="#b0acb2" d="M 84.5,234.5 C 86.4628,235.96 88.2962,237.627 90,239.5C 90.6917,240.437 90.525,241.103 89.5,241.5C 87.4202,239.427 85.7536,237.093 84.5,234.5 Z"/></g>
<g><path style="opacity:0.008" fill="#cfccd0" d="M 821.5,237.5 C 821.573,239.027 820.906,240.027 819.5,240.5C 819.427,238.973 820.094,237.973 821.5,237.5 Z"/></g>
<g><path style="opacity:0.922" fill="#9c969f" d="M 275.5,239.5 C 277.446,240.035 278.446,241.368 278.5,243.5C 277.026,242.564 276.026,241.23 275.5,239.5 Z"/></g>
<g><path style="opacity:0.863" fill="#97919a" d="M 473.5,241.5 C 474.537,242.93 475.204,244.597 475.5,246.5C 473.787,245.365 473.12,243.698 473.5,241.5 Z"/></g>
<g><path style="opacity:0.471" fill="#aca7ae" d="M 20.5,245.5 C 22.0269,245.427 23.0269,246.094 23.5,247.5C 21.9731,247.573 20.9731,246.906 20.5,245.5 Z"/></g>
<g><path style="opacity:0.753" fill="#a29da5" d="M 489.5,246.5 C 491.404,246.738 492.738,247.738 493.5,249.5C 491.596,249.262 490.262,248.262 489.5,246.5 Z"/></g>
<g><path style="opacity:0.839" fill="#948e97" d="M 282.5,247.5 C 284.404,247.738 285.738,248.738 286.5,250.5C 284.596,250.262 283.262,249.262 282.5,247.5 Z"/></g>
<g><path style="opacity:0.643" fill="#928d96" d="M 334.5,248.5 C 334.784,246.585 334.451,244.919 333.5,243.5C 333.783,242.711 334.283,242.044 335,241.5C 335.796,244.039 335.629,246.372 334.5,248.5 Z"/></g>
<g><path style="opacity:0.392" fill="#b6b2b8" d="M 599.5,246.5 C 601.027,246.427 602.027,247.094 602.5,248.5C 600.973,248.573 599.973,247.906 599.5,246.5 Z"/></g>
<g><path style="opacity:0.604" fill="#908b94" d="M 752.5,246.5 C 754.027,246.427 755.027,247.094 755.5,248.5C 753.973,248.573 752.973,247.906 752.5,246.5 Z"/></g>
<g><path style="opacity:0.349" fill="#b4b0b6" d="M 23.5,247.5 C 25.0269,247.427 26.0269,248.094 26.5,249.5C 24.9731,249.573 23.9731,248.906 23.5,247.5 Z"/></g>
<g><path style="opacity:0.365" fill="#cbc8cd" d="M 543.5,249.5 C 543.167,249.5 542.833,249.5 542.5,249.5C 542.784,247.585 542.451,245.919 541.5,244.5C 541.783,243.711 542.283,243.044 543,242.5C 543.497,244.81 543.663,247.143 543.5,249.5 Z"/></g>
<g><path style="opacity:0.376" fill="#ada9b0" d="M 602.5,248.5 C 604.027,248.427 605.027,249.094 605.5,250.5C 603.973,250.573 602.973,249.906 602.5,248.5 Z"/></g>
<g><path style="opacity:0.443" fill="#afabb2" d="M 436.5,249.5 C 438.027,249.427 439.027,250.094 439.5,251.5C 437.973,251.573 436.973,250.906 436.5,249.5 Z"/></g>
<g><path style="opacity:0.039" fill="#cfcdd0" d="M 475.5,247.5 C 476.124,247.917 476.457,248.584 476.5,249.5C 476.253,250.713 475.586,251.38 474.5,251.5C 475.234,250.292 475.567,248.959 475.5,247.5 Z"/></g>
<g><path style="opacity:0.49" fill="#9c979f" d="M 493.5,249.5 C 495.027,249.427 496.027,250.094 496.5,251.5C 494.973,251.573 493.973,250.906 493.5,249.5 Z"/></g>
<g><path style="opacity:0.933" fill="#86808a" d="M 33.5,252.5 C 37.1621,252.723 40.4954,253.723 43.5,255.5C 39.8379,255.277 36.5046,254.277 33.5,252.5 Z"/></g>
<g><path style="opacity:0.29" fill="#b8b4ba" d="M 288.5,251.5 C 290.027,251.427 291.027,252.094 291.5,253.5C 289.973,253.573 288.973,252.906 288.5,251.5 Z"/></g>
<g><path style="opacity:0.847" fill="#9c979f" d="M 609.5,252.5 C 613.162,252.723 616.495,253.723 619.5,255.5C 615.838,255.277 612.505,254.277 609.5,252.5 Z"/></g>
<g><path style="opacity:0.898" fill="#8d8790" d="M 762.5,252.5 C 766.162,252.723 769.495,253.723 772.5,255.5C 768.838,255.277 765.505,254.277 762.5,252.5 Z"/></g>
<g><path style="opacity:0.628" fill="#7a747e" d="M 542.5,249.5 C 542.833,249.5 543.167,249.5 543.5,249.5C 543.5,250.833 543.5,252.167 543.5,253.5C 551.833,253.5 560.167,253.5 568.5,253.5C 568.833,253.5 569.167,253.5 569.5,253.5C 569.5,253.833 569.5,254.167 569.5,254.5C 560.5,254.5 551.5,254.5 542.5,254.5C 542.5,252.833 542.5,251.167 542.5,249.5 Z"/></g>
<g><path style="opacity:0.588" fill="#8f8992" d="M 292.5,253.5 C 295.152,253.41 297.485,254.076 299.5,255.5C 296.848,255.59 294.515,254.924 292.5,253.5 Z"/></g>
<g><path style="opacity:0.529" fill="#9e98a0" d="M 500.5,253.5 C 503.152,253.41 505.485,254.076 507.5,255.5C 504.848,255.59 502.515,254.924 500.5,253.5 Z"/></g>
<g><path style="opacity:0.227" fill="#b9b5bb" d="M 799.5,253.5 C 796.829,255.118 793.829,255.785 790.5,255.5C 793.273,254.343 796.273,253.676 799.5,253.5 Z"/></g>
<g><path style="opacity:0.259" fill="#c7c5c9" d="M 68.5,254.5 C 63.9229,255.99 59.0896,256.656 54,256.5C 50.6482,256.498 47.4815,256.165 44.5,255.5C 52.5246,255.61 60.5246,255.276 68.5,254.5 Z"/></g>
<g><path style="opacity:0.004" fill="#d3d1d4" d="M 643.5,254.5 C 639.258,255.968 634.758,256.634 630,256.5C 626.979,256.498 624.146,256.164 621.5,255.5C 628.858,255.582 636.191,255.248 643.5,254.5 Z"/></g>
<g><path style="opacity:0.584" fill="#a49fa7" d="M 693.5,259.5 C 693.167,261.833 691.833,263.167 689.5,263.5C 690.5,261.833 691.833,260.5 693.5,259.5 Z"/></g>
<g><path style="opacity:0.318" fill="#a09ba2" d="M 669.5,264.5 C 675.527,265.656 681.527,265.656 687.5,264.5C 687.389,265.117 687.056,265.617 686.5,266C 684.167,266.167 681.833,266.333 679.5,266.5C 675.859,266.685 672.526,266.019 669.5,264.5 Z"/></g>
<g><path style="opacity:0.792" fill="#a29da4" d="M 661.5,283.5 C 662.591,285.534 664.257,286.868 666.5,287.5C 664.738,287.643 663.071,287.309 661.5,286.5C 660.224,285.386 660.224,284.386 661.5,283.5 Z"/></g>
</svg>
