<?xml version="1.0" encoding="utf-8"?>
<!-- Generator: Adobe Illustrator 26.3.1, SVG Export Plug-In . SVG Version: 6.00 Build 0)  -->
<svg width="129" height="24" version="1.1" id="Layer_1" xmlns="http://www.w3.org/2000/svg" xmlns:xlink="http://www.w3.org/1999/xlink" x="0px" y="0px"
	 viewBox="0 0 569.9 113" style="enable-background:new 0 0 569.9 113;" xml:space="preserve">
<style type="text/css">
	.st0{fill:#FC5E02;}
	.st1{fill:#291E30;}
</style>
<g>
	<g>
		<a xlink:href="48.7239215686274" >
			<path id="logoMark_00000023998619249164868820000000305097565885119120_" class="st0" d="M78.4,2.5l-7.9,19.8l7.7,15.9l8.4-20.5
				h18.3v70.1c0,2.7-1.1,5.2-3,7.1c-1.9,1.9-4.5,3-7.2,3c-2.1,0-5.8-1.2-7.3-4.1L76.2,69.2l-0.1,0.1L57.7,29l0.1-0.1L50,12.1
				C45.6,3.3,36.7,0,29.4,0c-6.7,0-13.2,2.7-17.9,7.4C6.7,12.1,4,18.6,4,25.3l0.3,85.2h38.4l9.9-21.4l-7.7-15.9L34.5,95.3H19.2v-70
				c0-2.7,1.1-5.2,3-7.1c1.9-1.9,4.5-3,7.2-3c1.3,0,5.9,0.3,7.6,4.7l8.6,18.8l2.8,6.3l18.4,40.3c3.2,6.9,6.8,14.5,8.3,17.8
				c3.2,6.6,11.5,10,19.6,10c3.3,0,6.6-0.7,9.7-1.9c3.1-1.3,5.9-3.1,8.2-5.5c2.4-2.3,4.2-5.1,5.5-8.2c1.3-3.1,1.9-6.4,1.9-9.7V2.5
				H78.4z"/>
		</a>
	</g>
	<a xlink:href="86.1407843137255" >
		<path id="type__x3C_PathItem_x3E__00000165210861898033169940000014228060201819831738_" class="st1" d="M145.7,93.4V21.9
			c0-0.2,0-0.3,0-0.5c0.1-0.2,0.1-0.3,0.3-0.4c0.1-0.1,0.3-0.2,0.4-0.3c0.2-0.1,0.3-0.1,0.5,0h15.1c0.3,0,0.6,0.1,0.9,0.2
			c0.3,0.2,0.5,0.4,0.6,0.6l32.6,50.7h0.6V21.9c0-0.2,0-0.3,0-0.5c0.1-0.2,0.1-0.3,0.3-0.4c0.1-0.1,0.3-0.2,0.4-0.3
			c0.2-0.1,0.3-0.1,0.5,0h12.6c0.2,0,0.3,0,0.5,0c0.2,0.1,0.3,0.1,0.4,0.3c0.1,0.1,0.2,0.3,0.3,0.4c0.1,0.2,0.1,0.3,0,0.5v71.8
			c0,0.2,0,0.3,0,0.5c-0.1,0.2-0.1,0.3-0.3,0.4c-0.1,0.1-0.3,0.2-0.4,0.3c-0.2,0.1-0.3,0.1-0.5,0h-15.1c-0.3-0.1-0.5-0.2-0.7-0.4
			s-0.3-0.5-0.4-0.7l-33.1-50.9h-0.4v50.6c0,0.2,0,0.3,0,0.5c-0.1,0.2-0.1,0.3-0.3,0.4s-0.3,0.2-0.4,0.3c-0.2,0.1-0.3,0.1-0.5,0
			h-12.6c-0.2,0-0.3,0-0.5,0c-0.2-0.1-0.3-0.1-0.4-0.3s-0.2-0.3-0.3-0.4C145.7,93.8,145.7,93.6,145.7,93.4z"/>
	</a>
	<a xlink:href="86.1407843137255" >
		<path id="type__x3C_PathItem_x3E__00000175316316227346310120000012860625208398038432_" class="st1" d="M294.6,77.5V48.9h-7.5
			c-0.2,0-0.3,0-0.5,0c-0.2-0.1-0.3-0.1-0.4-0.2c-0.1-0.1-0.2-0.3-0.3-0.4c-0.1-0.2-0.1-0.3,0-0.5v-8.6c0-0.8,0.4-1.2,1.2-1.2h7.5
			V22.5c0-0.2,0-0.3,0.1-0.5c0.1-0.1,0.1-0.3,0.3-0.4c0.1-0.1,0.2-0.2,0.4-0.3c0.1-0.1,0.3-0.1,0.5-0.1l13-0.1c0.2,0,0.3,0,0.5,0
			c0.2,0.1,0.3,0.1,0.4,0.3c0.1,0.1,0.2,0.3,0.3,0.4c0.1,0.2,0.1,0.3,0,0.5v14.2c0,0.6,0.5,1,1,1h14c0.2,0,0.3,0,0.5,0
			c0.2,0.1,0.3,0.1,0.4,0.3c0.1,0.1,0.2,0.3,0.3,0.4c0.1,0.2,0.1,0.3,0,0.5v8.9c0,0.2,0,0.3-0.1,0.5c-0.1,0.2-0.2,0.3-0.3,0.4
			c-0.1,0.1-0.3,0.2-0.4,0.2c-0.2,0.1-0.3,0.1-0.5,0h-15v33.3c0,0.6,0.5,1,1,1h14c0.2,0,0.3,0,0.5,0c0.2,0.1,0.3,0.1,0.4,0.2
			c0.1,0.1,0.2,0.2,0.3,0.4c0.1,0.2,0.1,0.3,0.1,0.5V93c0,0.2,0,0.3,0,0.5c-0.1,0.2-0.1,0.3-0.3,0.4s-0.3,0.2-0.4,0.3
			c-0.2,0.1-0.3,0.1-0.5,0h-13.3c-2.3,0.3-4.6,0-6.8-0.7c-2.2-0.7-4.2-2-5.8-3.6c-1.7-1.6-2.9-3.6-3.7-5.7
			C294.6,82.1,294.3,79.8,294.6,77.5z"/>
	</a>
	<a xlink:href="86.1407843137255" >
		<path id="type__x3C_PathItem_x3E__00000084495364269793737550000003887050846340558982_" class="st1" d="M466.7,93.4V54.8
			c-0.3-2.3-0.1-4.7,0.6-6.9c0.8-2.2,2-4.3,3.7-5.9c1.7-1.7,3.7-2.9,6-3.7c2.3-0.8,4.7-1,7-0.7h17.3c0.2,0,0.3,0,0.5,0
			c0.2,0.1,0.3,0.1,0.4,0.3c0.1,0.1,0.2,0.3,0.3,0.4c0.1,0.2,0.1,0.3,0,0.5v10c0,0.2,0,0.3-0.1,0.5c-0.1,0.2-0.1,0.3-0.3,0.4
			c-0.1,0.1-0.3,0.2-0.4,0.3c-0.2,0.1-0.3,0.1-0.5,0.1h-18.3c-0.6,0-1,0.5-1,1v42.2c0,0.8-0.4,1.2-1.1,1.2h-13c-0.2,0-0.3,0-0.5,0
			c-0.2-0.1-0.3-0.1-0.4-0.3c-0.1-0.1-0.2-0.3-0.3-0.4C466.7,93.7,466.7,93.5,466.7,93.4z"/>
	</a>
	<path id="type__x3C_CompoundPathItem_x3E__00000139997445305046047590000013360262371072736699_" class="st1" d="M397.1,66.9
		c0-0.4,0-0.8,0-1.2c-0.2-3.7,0.4-7.5,1.7-11c1.4-3.7,3.6-7,6.4-9.8c2.8-2.8,6.2-4.9,9.9-6.3c5.2-2.1,17.5-2.3,23.4,0
		c3.7,1.4,7.2,3.5,10,6.3c2.8,2.8,5,6.1,6.4,9.8c1.3,3.5,1.9,7.2,1.7,11c0,0.4,0,0.8,0,1.2c0.1,3.7-0.5,7.4-1.8,10.9
		c-1.4,3.7-3.6,7-6.5,9.7c-2.8,2.7-6.2,4.9-9.9,6.2c-7.2,2.5-16.7,2.7-23.3,0c-3.7-1.4-7.1-3.5-9.9-6.2c-2.8-2.7-5-6.1-6.4-9.7
		C397.6,74.3,396.9,70.6,397.1,66.9z M426.8,84c9.3,0,14.5-6.4,14.5-17.6s-5.4-17.8-14.5-17.8s-14.5,6.4-14.5,17.8
		S417.4,84,426.8,84z"/>
	<a xlink:href="86.1407843137255" >
		<path id="type__x3C_PathItem_x3E__00000137101172769680678530000016196911889055241386_" class="st1" d="M333.1,66.3
			c-0.2-3.9,0.4-7.9,1.8-11.5c1.4-3.7,3.6-7,6.5-9.8c2.8-2.8,6.2-4.9,10-6.3c3.7-1.4,7.7-2,11.7-1.7c14.7-0.1,25.2,7.3,27,20
			c0,0.2,0,0.3-0.1,0.5c-0.1,0.2-0.1,0.3-0.3,0.4c-0.1,0.1-0.3,0.2-0.4,0.3c-0.2,0.1-0.3,0.1-0.5,0.1l-12.5,0.6
			c-0.8,0-1.1-0.4-1.3-1.2c-0.2-1.4-0.6-2.7-1.3-3.9c-0.7-1.2-1.6-2.2-2.7-3.1c-1.1-0.8-2.4-1.5-3.7-1.8c-1.4-0.4-2.8-0.4-4.1-0.3
			c-9.1,0-14.2,6.9-14.2,17.8s5.3,17.6,14.2,17.6c2.9,0.4,5.8-0.3,8.1-2c2.3-1.7,3.8-3.9,4.2-6.7c0-0.2,0-0.3,0.1-0.5
			c0.1-0.2,0.2-0.3,0.3-0.4c0.1-0.1,0.3-0.2,0.4-0.3c0.2-0.1,0.3-0.1,0.5-0.1l12.6,0.3c0.8,0,1.3,0.4,1.2,1.1
			c-1.9,12.6-12.7,20-27.7,19.9c-4,0.3-7.9-0.3-11.7-1.6c-3.7-1.4-7.1-3.5-9.9-6.3s-5-6.1-6.4-9.8C333.5,74.2,332.9,70.2,333.1,66.3
			z"/>
	</a>
	<path id="type__x3C_CompoundPathItem_x3E__00000177454841477071984130000009411287652107273877_" class="st1" d="M222.2,66.3
		c-0.3-3.9,0.3-7.9,1.7-11.6c1.4-3.7,3.6-7.1,6.5-9.8s6.3-4.9,10-6.3c3.8-1.4,7.8-1.9,11.8-1.6c17.4,0,27.8,11,27.8,29.1v3.1
		c0,0.3-0.1,0.6-0.4,0.9c-0.2,0.2-0.6,0.4-0.9,0.4H238c-0.1,1.9,0.3,3.7,1,5.4c0.7,1.7,1.8,3.3,3.1,4.6c1.4,1.3,3,2.3,4.7,2.9
		c1.8,0.6,3.7,0.9,5.5,0.8c2.5,0.3,5.1-0.1,7.3-1.4c2.2-1.2,3.7-2.7,4.7-5c0.1-0.3,0.2-0.6,0.5-0.8c0.3-0.2,0.6-0.3,0.9-0.2
		l12.5,0.6c0.9,0,1.3,0,1.2,0.9c-2,10.8-14,17.1-27.5,17c-3.9,0.3-7.9-0.3-11.6-1.6c-3.7-1.3-7.1-3.4-9.9-6.2c-2.8-2.7-5-6-6.4-9.7
		C222.6,74.1,222,70.2,222.2,66.3z M265.1,61.3c0.1-1.7-0.1-3.4-0.7-5c-0.6-1.6-1.5-3.1-2.7-4.3c-1.2-1.2-2.7-2.2-4.3-2.8
		c-1.6-0.6-3.3-0.9-5.1-0.9c-1.8-0.2-3.7,0.1-5.4,0.7c-1.7,0.6-3.3,1.5-4.7,2.7c-1.3,1.2-2.4,2.7-3.1,4.4c-0.7,1.7-1.1,3.4-1.1,5.3
		H265.1z"/>
	<path id="type__x3C_CompoundPathItem_x3E__00000179623821524560001700000001923664027115997831_" class="st1" d="M508.2,66.3
		c-0.3-3.9,0.3-7.9,1.7-11.6c1.4-3.7,3.6-7.1,6.5-9.8s6.3-4.9,10-6.3c3.8-1.4,7.8-1.9,11.8-1.6c17.4,0,27.8,11,27.8,29.1v3.1
		c0,0.3-0.1,0.6-0.4,0.9c-0.2,0.2-0.6,0.4-0.9,0.4H524c-0.1,1.9,0.3,3.7,1,5.4c0.7,1.7,1.8,3.3,3.1,4.6c1.4,1.3,3,2.3,4.7,2.9
		c1.8,0.6,3.7,0.9,5.5,0.8c2.5,0.3,5.1-0.1,7.3-1.4c2.2-1.2,3.7-2.7,4.7-5c0.1-0.3,0.2-0.6,0.5-0.8c0.3-0.2,0.6-0.3,0.9-0.2
		l12.5,0.6c0.9,0,1.3,0,1.2,0.9c-2,10.8-14,17.1-27.5,17c-3.9,0.3-7.9-0.3-11.6-1.6c-3.7-1.3-7.1-3.4-9.9-6.2c-2.8-2.7-5-6-6.4-9.7
		C508.6,74.1,507.9,70.2,508.2,66.3z M551,61.3c0.1-1.7-0.1-3.4-0.7-5c-0.6-1.6-1.5-3.1-2.7-4.3c-1.2-1.2-2.7-2.2-4.3-2.8
		c-1.6-0.6-3.3-0.9-5.1-0.9c-1.8-0.2-3.7,0.1-5.4,0.7c-1.7,0.6-3.3,1.5-4.7,2.7c-1.3,1.2-2.4,2.7-3.1,4.4c-0.7,1.7-1.1,3.4-1.1,5.3
		H551z"/>
</g>
</svg>
