<svg width="32" height="32" viewBox="0 0 32 32" fill="none" xmlns="http://www.w3.org/2000/svg">
<path d="M16 0C7.16479 0 0 7.16479 0 16C0 24.8352 7.16479 32 16 32C24.8352 32 32 24.8352 32 16C32 7.16479 24.8352 0 16 0Z" fill="#291E30"/>
<path d="M23.9964 24V23.9994H24.0004V18.1316C24.0004 15.2611 23.3824 13.0498 20.0266 13.0498C18.4133 13.0498 17.3307 13.9351 16.8887 14.7744H16.842V13.3178H13.6602V23.9994H16.9734V18.7103C16.9734 17.3176 17.2373 15.971 18.9619 15.971C20.6612 15.971 20.6865 17.5603 20.6865 18.7996V24H23.9964Z" fill="white"/>
<path d="M8.26562 13.3174H11.5828V23.999H8.26562V13.3174Z" fill="white"/>
<path d="M9.92126 8C8.86063 8 8 8.86063 8 9.92126C8 10.9819 8.86063 11.8605 9.92126 11.8605C10.9819 11.8605 11.8425 10.9819 11.8425 9.92126C11.8419 8.86063 10.9812 8 9.92126 8V8Z" fill="white"/>
</svg>
