<?xml version="1.0" encoding="utf-8"?>
<!-- Generator: Adobe Illustrator 26.3.1, SVG Export Plug-In . SVG Version: 6.00 Build 0)  -->
<svg version="1.1" id="Layer_1" xmlns="http://www.w3.org/2000/svg" xmlns:xlink="http://www.w3.org/1999/xlink" x="0px" y="0px"
	 viewBox="0 0 25 30" style="enable-background:new 0 0 25 30;" xml:space="preserve">
<style type="text/css">
	.st0{fill:#FC5E02;}
</style>
<g>
	<path class="st0" d="M22.4,9.4l-6.5-6C13.9,1.6,11.1,1.5,9,3.1L3.5,7.6C3,7.9,3,8.6,3.3,9.1c0.4,0.5,1,0.5,1.5,0.2l5.5-4.4
		c1.2-1,2.9-0.9,4.1,0.1l6.5,6c0.6,0.6,1,1.4,1,2.3v9.4c0,1.7-1.4,3.1-3.1,3.1H6.2c-1.7,0-3.1-1.4-3.1-3.1v-7c0-1.7,1.4-3.1,3.1-3.1
		h5.9c0,0,0.1,0,0.1,0c0.1,0,0.1,0,0.2,0c0.9,0,1.8,0.2,2.6,0.6c0.8,0.4,1.5,1.1,1.9,1.9c0.5,0.8,0.7,1.7,0.7,2.6
		c0,0.9-0.3,1.8-0.8,2.6c-0.1,0.2-0.3,0.4-0.5,0.6c-0.4,0.5-0.9,0.9-1.5,1.2c-0.3,0.2-0.7,0.3-1,0.4c-0.5,0.1-1.1,0.2-1.6,0.1
		c-0.9-0.1-1.8-0.4-2.5-0.9C9,21.1,8.4,20.4,8,19.5c0,0,0,0,0,0c0,0,0,0,0,0c-0.1-0.2-0.2-0.3-0.2-0.5c-0.3-0.9-0.4-1.7-0.1-2.3
		c0.3-0.8,1.1-1.2,1.6-1.2c0.2,0,0.4,0.1,0.6,0.2c-0.3,0.5-0.5,1.1-0.5,1.8c0,1.8,1.5,3.4,3.4,3.4c1.8,0,3.4-1.5,3.4-3.4
		s-1.5-3.4-3.4-3.4c-0.4,0-0.8,0.1-1.2,0.2c-0.5-0.6-1.3-1-2.1-1c-1.5-0.1-3,1-3.6,2.5c-0.4,1.1-0.4,2.4,0.1,3.8
		c0.1,0.2,0.2,0.5,0.3,0.7c0,0.1,0.1,0.2,0.1,0.2c0,0,0,0,0,0c0.5,1.1,1.3,2,2.3,2.7c1,0.7,2.3,1.2,3.6,1.3c0.2,0,0.3,0,0.5,0
		c0.6,0,1.2-0.1,1.8-0.2c0.5-0.1,1-0.3,1.5-0.6c0.8-0.4,1.5-1,2.1-1.6c0.3-0.3,0.5-0.6,0.7-0.9c0.7-1.1,1.1-2.4,1.1-3.6
		c0-1.3-0.3-2.6-0.9-3.7c-0.6-1.1-1.6-2.1-2.7-2.7c-1.1-0.6-2.4-0.9-3.7-0.9c0,0-0.1,0-0.1,0c-0.1,0-0.1,0-0.1,0H6.2
		c-2.9,0-5.2,2.3-5.2,5.2v7c0,2.9,2.3,5.2,5.2,5.2h12.7c2.9,0,5.2-2.3,5.2-5.2v-9.4C24.1,11.8,23.5,10.4,22.4,9.4z M13.9,17.5
		c0,0.7-0.6,1.3-1.3,1.3c-0.7,0-1.3-0.6-1.3-1.3c0-0.7,0.6-1.3,1.3-1.3C13.3,16.2,13.9,16.8,13.9,17.5z"/>
</g>
</svg>
